<svg width="223" height="122" viewBox="0 0 223 122" fill="none" xmlns="http://www.w3.org/2000/svg">
<g clip-path="url(#clip0_14_130)">
<path fill-rule="evenodd" clip-rule="evenodd" d="M92.1846 60.0709C91.8966 59.63 91.4714 59.6456 91.2045 59.2866L90.8454 58.7409C90.6908 58.5343 90.5647 58.525 90.4687 58.2562C90.4052 58.0787 90.3586 57.6993 90.2517 57.5677C90.1288 57.4166 89.9413 57.2894 89.8248 57.1336C89.6901 56.9535 89.6607 56.7508 89.562 56.5344C89.4315 56.2481 89.366 56.2614 89.1647 56.0704C89.0097 55.9232 88.7158 55.1824 88.5551 54.9143C88.403 54.6604 88.2853 54.7169 88.1468 54.417C88.0404 54.1869 88.0042 54.039 87.8275 53.8745C87.4572 53.5297 86.973 53.6272 86.314 53.6272C82.2376 53.6272 78.1613 53.6272 74.0849 53.6272C72.5797 53.6272 71.8715 53.3481 71.3388 54.3614C71.4357 54.5071 71.4456 54.4477 71.5304 54.6437C71.6863 55.0034 71.7321 55.385 71.8274 55.7702C72.0402 56.63 72.2833 56.4863 72.4741 56.9766C72.6208 57.3542 72.8049 58.0775 73.2261 58.1202C74.4154 58.2405 75.5886 58.0327 76.7883 58.0331C77.4225 58.0332 78.0036 58.0558 78.5664 57.9656C79.615 57.7977 79.775 57.9188 80.2888 57.8421C81.3368 57.6855 81.9358 57.6775 82.9124 57.8291C83.2661 57.8839 83.181 57.8275 83.4079 58.0647L83.9499 58.5989C84.2742 58.937 84.4457 59.4805 84.7359 59.7516C84.922 59.9254 84.9692 59.8924 85.1224 60.14C85.2779 60.3915 85.3327 60.6321 85.5512 60.8314C85.9669 61.2104 85.74 60.8923 86.0276 61.4748C86.2398 61.9045 86.4482 62.0442 86.6591 62.3509C86.7244 62.4457 86.8771 62.7455 86.8677 62.9061C86.8469 63.2629 86.7916 63.8295 86.5788 64.131C86.0312 64.9066 86.143 65.8174 85.7992 66.3697C85.7049 66.5211 85.593 66.5812 85.4839 66.7866C85.3094 67.1158 85.2571 67.5976 85.1651 67.9775C84.873 69.1838 84.6636 68.6102 84.3583 70.1888C84.1098 71.4739 83.4723 71.5392 83.6635 72.4066C83.9541 73.7244 84.7225 73.2804 85.1473 73.937C85.4343 74.3806 85.6739 74.2662 86.0408 74.5494C86.194 74.6677 86.2443 74.8176 86.4113 74.954C86.5185 75.0414 86.7499 75.1466 86.8746 75.2219C87.3391 75.502 87.3572 75.6322 87.704 75.8988C88.0741 76.1832 88.2394 76.0392 88.6208 76.4876C88.8879 76.8016 89.2089 76.83 89.5898 77.024C90.1621 77.3153 90.078 77.1328 90.6422 76.9465C91.3445 76.7146 91.1501 76.6817 91.5083 76.3066C91.6358 76.1732 91.8293 76.1268 92.0071 76.0313C92.1968 75.9296 92.2762 75.8557 92.4181 75.7106C92.5842 75.5407 92.6399 75.4839 92.8359 75.3539C92.9828 75.2567 93.1113 75.1577 93.2802 75.0668C93.4092 74.9974 93.4128 75.0007 93.5184 74.918C93.7362 74.7475 93.8408 74.5221 94.1081 74.3885C94.4 74.2425 94.5815 74.1372 94.7666 73.8851C94.94 73.6489 95.1693 73.5962 95.4365 73.4366C95.6966 73.2815 95.7677 73.0321 96.0101 72.8909C96.0981 72.8398 96.1577 72.8043 96.2556 72.7493C97.1272 72.26 97.071 71.992 97.5058 71.7616C97.664 71.6778 97.8434 71.6281 97.9859 71.5105C98.3494 71.2099 98.1996 71.0101 99.0423 71.2666C99.5437 71.4194 99.402 71.6356 100.695 71.8493C101.813 72.0343 101.715 72.369 102.938 72.615C103.318 72.6914 103.775 72.7353 104.086 72.9703C104.343 73.164 104.543 73.5792 104.637 73.9283C104.753 74.3648 104.964 74.5839 105.103 74.9703C105.365 75.6985 105.373 76.6527 105.708 77.3419C105.798 77.5259 105.898 77.6484 105.98 77.8453C106.062 78.0398 106.081 78.2012 106.12 78.4391C106.194 78.8918 106.249 79.3324 106.343 79.7262C106.385 79.9002 106.46 80.1407 106.524 80.2787C106.603 80.4512 106.715 80.5506 106.796 80.7394C106.971 81.1511 106.988 81.5038 107.078 81.9668C107.169 82.4342 107.268 82.7402 107.647 82.9061C107.827 82.985 108.036 83.032 108.21 83.1167L108.744 83.313C109.148 83.3921 109.531 83.4745 110.043 83.4745H114.119C114.429 83.4745 115.079 83.3258 115.247 83.1843C115.665 82.8323 116.211 82.0427 116.36 81.4973C116.461 81.1284 116.537 80.7959 116.608 80.3647C116.851 78.8883 117.09 79.3023 117.283 78.2367C117.356 77.8351 117.402 77.4569 117.491 77.0642C117.666 76.2988 117.942 76.4492 118.228 74.9978C118.483 73.7039 118.336 74.0634 118.872 73.5301C119.212 73.1917 119.249 72.9849 119.593 72.8738C120.147 72.6953 120.77 72.6452 121.313 72.4889C121.547 72.4217 121.616 72.4058 121.815 72.3028C121.987 72.2136 122.077 72.128 122.265 72.0651C122.748 71.9048 123.411 71.8115 123.908 71.6457C124.003 71.6141 124.082 71.5904 124.16 71.5537C124.196 71.5371 124.374 71.4236 124.374 71.4236C124.477 71.4236 125.163 71.5306 125.228 71.5582C125.321 71.5981 125.408 71.6776 125.519 71.7402C125.783 71.8885 126.098 71.943 126.265 72.198C126.558 72.6437 126.923 72.5728 127.236 72.9058C127.336 73.012 127.313 73.0667 127.43 73.1856C127.595 73.3541 127.814 73.4153 128.014 73.5475C128.222 73.6852 128.333 73.8346 128.517 73.9914C129.037 74.4334 129.404 74.3884 129.654 74.7906C129.792 75.0118 129.931 75.087 130.181 75.2101C130.447 75.3407 130.53 75.4095 130.698 75.6397C130.894 75.9068 131.305 76.0218 131.572 76.2288L131.708 76.3515C132.156 76.8317 132.455 76.8813 133.025 77.1418C133.446 77.3341 133.529 77.7096 133.975 77.2435C134.244 76.962 134.687 76.9029 134.964 76.6409C135.256 76.3648 135.087 76.3215 135.529 76.1302C136.495 75.7127 136.268 75.5712 136.766 75.2581C137.097 75.0497 137.305 75.0432 137.577 74.7361C137.804 74.4806 138.097 74.4246 138.364 74.232L138.637 73.9886C138.681 73.9427 138.674 73.948 138.722 73.9013C139.508 73.122 140.106 73.5488 139.81 72.1693C139.752 71.8971 139.537 71.7358 139.44 71.5059C139.231 71.0141 139.204 70.3217 138.979 69.8533C138.859 69.6051 138.685 69.4249 138.577 69.178C138.358 68.6782 138.364 68.013 138.135 67.5067C138.08 67.3845 138.014 67.2409 137.94 67.1413C137.71 66.8315 137.59 66.3783 137.508 65.9777C137.265 64.7904 137.067 65.0478 136.876 64.4978C136.557 63.5814 136.693 63.8635 136.69 63.174C136.686 62.4495 136.956 62.5355 137.231 62.1635C137.605 61.6577 137.62 61.4821 138.139 60.961C138.33 60.7688 138.402 60.5002 138.534 60.2795C138.675 60.0444 138.903 60.0223 139.06 59.7719C139.399 59.2288 139.214 59.3301 139.705 58.8232C139.886 58.6358 139.989 58.4056 140.175 58.2167C140.283 58.107 140.315 58.0389 140.464 57.9888C140.593 57.9453 140.72 57.9272 140.869 57.878C140.962 57.847 140.975 57.844 141.058 57.8092C141.173 57.7607 141.125 57.7312 141.238 57.7312C141.929 57.7312 142.729 57.764 143.352 57.849C143.868 57.9194 144.137 57.8097 145.129 57.9608C145.659 58.0416 146.384 57.9712 146.989 57.989C147.286 57.9977 147.524 58.0779 147.844 58.0783C148.431 58.079 149.091 58.0143 149.666 58.1017C150.973 58.3004 150.703 57.8548 151.314 57.0335C151.665 56.5622 151.67 56.2989 151.819 55.6407C152.074 54.5121 152.583 54.5575 152.19 54.0058C151.996 53.7337 151.58 53.7072 151.233 53.6753C150.634 53.6201 146.798 53.6712 146.001 53.6712C145.01 53.6712 137.355 53.7393 136.468 53.6332C135.865 53.5612 135.125 54.0009 134.862 54.6389C134.808 54.7683 134.79 54.818 134.74 54.948C134.499 55.5725 134.449 55.3326 134.207 55.7077C134.021 55.9961 133.834 56.6925 133.624 56.8919C133.116 57.3741 133.233 57.2558 132.974 57.9648C132.863 58.2661 132.737 58.2636 132.594 58.4902C132.455 58.7125 132.468 58.846 132.214 58.9713C131.957 59.0979 131.86 59.0601 131.685 59.3023C131.519 59.5306 131.587 59.6437 131.318 59.7971C131.076 59.9354 130.951 59.9238 130.797 60.1791C130.486 60.6919 130.205 60.7185 129.94 61.0882C129.633 61.5182 129.418 61.4449 129.034 61.9467C128.739 62.332 128.319 62.3556 128.064 62.6985C127.902 62.9177 127.849 62.9481 127.574 63.0688C126.88 63.3737 127.261 63.4939 126.577 63.8361C125.125 64.5628 126.041 64.4395 124.926 64.8092C124.652 64.9001 124.421 65.0418 124.228 65.2297C123.795 65.6535 123.119 65.6416 122.633 65.9992C121.86 66.5669 121.632 66.423 120.764 66.7094C120.614 66.7587 120.555 66.7714 120.433 66.8517C120.333 66.9177 120.288 66.9852 120.191 67.0399C119.61 67.3685 118.739 67.3463 118.124 67.5509C117.64 67.7121 117.407 67.9295 116.821 68.01C116.355 68.0739 115.766 68.1687 115.278 68.1842L112.82 68.3452C112.424 68.3998 109.82 68.3415 109.388 68.2825L107.769 68.1411C107.519 68.1258 107.229 68.0857 106.993 68.0585C106.716 68.0266 106.487 67.994 106.204 67.9449C105.869 67.8867 105.866 67.7999 105.61 67.6793C104.819 67.3061 103.587 67.4841 102.834 66.9315C102.448 66.6479 102.013 66.6227 101.541 66.4628C100.714 66.1829 100.852 66.0374 100.432 65.8515C100.133 65.7194 99.3031 65.5587 99.1074 65.4137C98.9145 65.2708 98.8829 65.1137 98.6312 64.986C98.2341 64.7846 97.8222 64.681 97.5028 64.3509C97.1119 63.9471 96.7175 63.9917 96.4161 63.717C96.2326 63.5497 96.2458 63.4418 95.987 63.285C95.8599 63.2081 95.7978 63.2002 95.676 63.1231C95.2368 62.845 94.9106 62.4289 94.4677 62.1364C93.8837 61.7509 94.0773 61.607 93.509 61.3305C93.114 61.1383 93.2939 61.2137 93.0934 60.8851C93.0123 60.7523 92.8061 60.5424 92.6515 60.4659C92.5174 60.3995 92.4709 60.413 92.3662 60.3212C92.2912 60.2555 92.246 60.165 92.1851 60.0716L92.1846 60.0709Z" fill="#1F319D"/>
<path fill-rule="evenodd" clip-rule="evenodd" d="M89.9182 6.02793C89.7841 6.22944 89.7614 6.2463 89.5503 6.39192C89.2557 6.59519 88.8914 6.64247 88.6736 6.93477C88.3415 7.38046 87.9258 7.3531 87.4403 7.80976C87.0591 8.1682 86.495 8.31394 86.2104 8.68818C85.9447 9.03754 85.4783 9.06206 85.187 9.38572C84.7698 9.84898 84.9811 9.56883 84.6095 9.88424C84.1328 10.2888 84.1627 10.2606 84.1677 10.7354C84.1737 11.2925 84.3852 11.9748 84.5485 12.47C84.6849 12.8839 84.8286 13.0566 85.0133 13.4274C85.3355 14.0743 85.3414 14.928 85.7306 15.5129C86.1364 16.1228 86.0927 16.9597 86.4272 17.6192C86.651 18.0607 86.7349 18.0833 86.863 18.6059C87.1474 19.7653 87.1867 19.2341 87.1301 20.3262C87.1162 20.5938 87.0639 20.6575 86.9495 20.8354C86.7676 21.1181 86.5618 21.315 86.3622 21.5833C86.2531 21.7301 86.1746 21.8351 86.0995 22.01C85.9157 22.438 85.813 22.3809 85.5448 22.661C85.3892 22.8237 85.3331 22.9593 85.227 23.1618C85.0257 23.5457 84.8092 23.5645 84.5988 23.9115C84.2215 24.5339 84.2189 24.5269 83.707 25.0438C83.419 25.3346 83.3502 25.5173 82.9282 25.599C82.2631 25.7276 81.5076 25.681 80.8213 25.681C80.434 25.681 80.1452 25.5822 79.7655 25.531C79.4192 25.4842 79.137 25.5514 78.7617 25.5514C77.7527 25.5514 76.8939 25.3911 75.8851 25.3803C75.6251 25.3776 75.4687 25.3341 75.1574 25.3353C72.9156 25.3437 73.0085 24.8877 72.5307 26.4061C72.4194 26.7601 72.173 27.0724 72.0256 27.4093C71.8877 27.7242 71.6337 28.8166 71.5886 29.2588L71.4672 29.8707C71.8405 29.8791 72.1214 30.0435 72.5827 30.0435H86.4852C86.6481 30.0435 86.8602 29.9603 86.9943 29.9082C87.5062 29.7092 87.7796 29.5905 87.9816 28.9584C88.1167 28.5355 88.2576 28.471 88.4686 28.1528C88.6348 27.9025 88.749 27.6068 88.8744 27.3087C89.021 26.9608 89.2597 26.986 89.4605 26.6028C89.6344 26.2708 89.6377 26.0625 89.9067 25.7994C90.1153 25.5953 90.2959 25.297 90.4334 25.0337C90.529 24.8508 90.5447 24.7922 90.6132 24.5668C90.6629 24.4031 90.7315 24.3266 90.8375 24.1878C91.0876 23.8607 91.0142 23.6208 91.4472 23.5057C92.0137 23.3551 91.8131 23.2502 92.1415 22.952C92.419 22.7001 92.6382 22.7995 92.8967 22.4163C93.3955 21.6769 93.5231 21.9563 93.8469 21.4724C94.1634 20.9994 94.316 21.1505 94.8629 20.5945C95.189 20.2632 95.635 20.0854 95.9785 19.774C96.4886 19.3118 96.7239 19.3167 97.1031 19.0055C97.2696 18.8687 97.2335 18.8076 97.4341 18.6909L98.2853 18.2951C98.8129 18.0348 98.4469 18.0186 99.4869 17.6042C100.217 17.313 100.366 16.9851 101.194 16.7738C102.309 16.4892 102.008 16.4125 102.532 16.1772C103.236 15.8617 103.899 16.0553 104.936 15.4446C105.419 15.1602 106.362 15.1842 107.026 15.0858C107.369 15.0349 107.757 14.9748 108.146 14.9179C109.203 14.7628 110.601 14.6664 111.672 14.6664C113.477 14.6664 115.73 14.968 117.539 15.2399C118.153 15.3321 118.516 15.6693 119.528 15.8722C121.034 16.1739 120.651 16.3496 121.45 16.6159C121.841 16.7463 122.397 16.811 122.754 17.0311C122.888 17.1141 122.873 17.1389 122.978 17.2377C123.377 17.6135 124.097 17.603 124.471 17.9375C124.684 18.1284 124.696 18.1932 124.973 18.3386C125.371 18.5467 125.795 18.6353 126.122 18.9534C126.43 19.2537 126.891 19.3352 127.173 19.6233C127.317 19.7708 127.416 19.9402 127.604 20.0529C128.337 20.4918 128.23 20.6581 128.578 20.8437C129.032 21.0867 129.197 21.3133 129.572 21.614L131.003 23.0244C131.211 23.2074 131.476 23.2813 131.709 23.4359C131.813 23.5044 131.845 23.5753 131.949 23.627C132.125 23.715 132.373 23.7506 132.47 23.9665C132.556 24.159 132.518 24.5186 132.579 24.7635C132.634 24.9838 132.833 25.0646 132.963 25.2426C133.111 25.4438 133.168 25.7658 133.347 25.9769C133.691 26.3821 133.683 26.1471 134.013 26.8181C134.191 27.1788 134.335 27.3318 134.544 27.6231C134.731 27.8833 134.811 28.216 134.956 28.5035C135.092 28.7705 135.475 29.2435 135.677 29.5488C135.744 29.6493 135.809 29.7384 135.872 29.8284C136.121 30.1867 136.413 30.0399 136.859 30.0426L149.089 30.0431C150.236 30.0431 150.835 30.088 151.909 29.9379C151.957 29.9313 152.178 29.9311 152.178 29.8272C152.178 29.3888 152.02 28.9315 151.912 28.497C151.766 27.9106 151.66 27.2255 151.42 26.6602C151.342 26.4784 151.235 26.3579 151.134 26.1705C150.977 25.8798 150.804 25.3959 150.451 25.306C150.422 25.2986 146.47 25.4359 146.031 25.496C145.826 25.5242 145.489 25.5342 145.311 25.5487L142.309 25.6803C141.528 25.6776 141.086 25.827 140.379 25.4637L140.101 25.2257C139.95 25.0457 139.796 24.7993 139.637 24.656C139.232 24.2907 139.264 24.2607 138.992 23.7499C138.804 23.3963 138.694 23.6006 138.31 22.8815C138.096 22.4806 137.846 22.3714 137.624 22.0176C136.833 20.7562 136.624 21.0366 136.775 19.8941C136.842 19.3964 137.089 19.2327 137.259 18.826C137.476 18.3094 137.532 17.422 137.778 17.0154C137.885 16.8367 137.999 16.7481 138.087 16.5496C138.232 16.2243 138.327 15.7168 138.421 15.3312C138.577 14.6923 138.729 14.7001 138.903 14.2606C139.053 13.8806 139.12 13.4595 139.238 13.0428C139.422 12.3896 140.083 11.5538 139.995 11.1243C139.851 10.422 139.802 10.3049 139.222 9.95593C138.743 9.66693 138.75 9.65255 138.352 9.27654C138.083 9.02115 137.703 9.01526 137.385 8.69572C137.003 8.31205 136.825 8.33327 136.486 8.0457C136.161 7.77014 136.062 7.57029 135.631 7.35169C135.168 7.11752 135.283 7.1437 134.982 6.8382C134.758 6.61016 134.546 6.52539 134.227 6.43201C133.43 6.19866 133.816 6.17331 133.056 6.56111C132.392 6.89998 132.339 7.14075 131.997 7.30936C131.29 7.65731 131.588 7.60354 131.25 7.93993C131.161 8.02907 131.09 8.04322 130.984 8.10347C130.31 8.48585 130.148 8.83898 129.407 9.23728C129.195 9.35094 129.105 9.51507 128.933 9.66764C128.769 9.81361 128.546 9.87245 128.355 9.99201C128.095 10.1546 128.094 10.2435 127.905 10.4463C127.764 10.5968 127.803 10.5509 127.624 10.6389C127.138 10.8779 126.827 11.3515 126.348 11.6009C126.167 11.6957 125.914 11.7975 125.747 11.9029C125.149 12.281 125.434 12.4939 124.03 11.859C123.489 11.6143 122.712 11.6105 122.136 11.3469C121.965 11.2688 121.798 11.166 121.628 11.0808C120.944 10.7371 119.91 10.7781 119.341 10.2302C118.99 9.89226 118.931 9.27972 118.753 8.79205C118.579 8.315 118.367 7.86247 118.256 7.34886C118.204 7.11151 118.174 6.93913 118.127 6.70095C118.027 6.19053 117.944 5.89375 117.714 5.5181C117.307 4.84968 117.399 3.67908 117.065 2.97529C116.899 2.62392 116.723 2.27362 116.638 1.84986C116.487 1.08451 116.554 0.573619 115.749 0.369874C115.525 0.313278 115.384 0.226969 115.173 0.171552C114.331 -0.0494078 111.705 -0.0235859 110.64 0.065081C110.171 0.104227 109.464 -0.0159219 109.149 0.0742779C108.786 0.178037 108.342 0.299482 108.118 0.636228C107.997 0.81875 107.926 0.902937 107.871 1.16434C107.708 1.92874 107.779 1.69787 107.452 2.34118C107.168 2.90101 107.101 3.56884 106.996 4.21439C106.921 4.67576 106.712 4.94636 106.547 5.36116C106.165 6.32353 106.347 6.84952 105.823 7.78477C105.312 8.69596 105.7 9.60597 104.927 10.0794L104.617 10.3284C104.398 10.5173 104.259 10.5786 103.931 10.6315C103.457 10.7078 103.027 10.7663 102.603 10.8927C102.417 10.948 102.205 11.0344 102.054 11.1179C101.863 11.2233 101.789 11.3161 101.547 11.3851C100.936 11.5594 100.248 11.603 99.6711 11.8723C99.5253 11.9403 99.3446 12.1615 99.186 12.1615C99.0624 12.1615 97.9789 11.6042 97.8695 11.5431C97.063 11.0924 97.4332 11.034 96.7691 10.707C96.1107 10.3829 96.6078 10.3507 95.652 9.88789C95.544 9.83554 95.444 9.77576 95.3591 9.70761C95.0652 9.47168 95.3223 9.5541 94.5863 9.06018C94.139 8.7601 93.7903 8.35084 93.508 8.20181C92.9447 7.90468 92.9962 7.68596 92.3915 7.38199C92.0869 7.22883 91.9476 7.01836 91.7163 6.80908C91.68 6.77618 91.6331 6.74458 91.5926 6.71758C91.0628 6.36421 90.5969 6.06236 89.9178 6.02793H89.9182Z" fill="#1F319D"/>
<path fill-rule="evenodd" clip-rule="evenodd" d="M100.989 58.9399C100.783 58.9399 100.12 58.6961 100.008 58.502L99.7744 58.0023C99.65 57.7199 99.6813 57.7873 99.7005 57.4727C99.7346 56.9122 99.6197 56.6676 100.242 56.201C100.346 56.1229 100.623 55.83 100.903 55.83C101.714 55.83 101.79 55.8246 102.069 56.2541C102.33 56.6548 102.505 56.5307 102.675 56.8105C102.744 56.9238 102.748 56.9534 102.75 57.1237C102.754 57.4199 102.82 57.6517 102.745 57.8561C102.659 58.0904 102.601 58.1551 102.436 58.3238C102.227 58.5363 102.392 58.5089 102.062 58.7252C101.646 58.9985 101.55 58.9401 100.989 58.9401L100.989 58.9399ZM97.8993 57.6441C97.8993 58.579 98.2567 58.6193 98.5435 59.1986C98.6153 59.3437 98.6766 59.5257 98.7736 59.658C99.004 59.9722 99.3169 59.9986 99.6345 60.2168C99.7971 60.3284 99.8635 60.4542 100.036 60.547C100.194 60.6322 100.372 60.6511 100.577 60.6931C100.92 60.7632 101.51 60.7583 101.849 60.67C102.236 60.5692 102.443 60.3479 102.766 60.1678C104.052 59.4524 103.925 58.8204 104.349 58.5214C104.454 58.4472 104.448 58.4636 104.541 58.3696C104.662 58.2484 104.743 58.1305 104.823 57.9619C105.115 57.3435 105.223 57.6181 105.488 57.2056C105.596 57.0368 105.622 56.8823 105.743 56.7285C105.883 56.5501 105.972 56.5696 106.129 56.4257C106.325 56.2453 106.295 56.2166 106.424 55.9885C106.649 55.5911 106.914 55.5847 107.118 55.2612C107.253 55.0465 107.389 54.8245 107.587 54.6535C108.02 54.2778 108.3 53.7146 108.756 53.3684C109.041 53.1521 109.141 52.8324 109.423 52.6152C109.923 52.232 109.837 51.8483 110.278 51.6185C110.507 51.5 110.674 51.329 110.787 51.0935C110.983 50.6847 111.26 50.781 111.501 50.387C111.613 50.2046 111.605 50.0857 111.794 49.9474C111.963 49.8232 112.057 49.852 112.196 49.6619C112.307 49.5102 112.339 49.3366 112.457 49.1893C112.613 48.9932 112.667 49.029 112.857 48.9015C113.21 48.6644 113.177 48.3224 113.503 48.1266C113.979 47.8414 113.853 47.6896 114.171 47.3731C114.313 47.2314 114.466 47.1775 114.58 47.0507C114.687 46.9312 114.757 46.7578 114.847 46.6288C115.096 46.2746 115.328 46.3642 115.575 45.9364C115.755 45.6261 116.042 45.4821 116.275 45.2157L116.742 44.605C116.85 44.4752 116.783 44.5415 116.914 44.4333C117.168 44.2248 117.257 43.8342 117.397 43.4942C117.599 43.0041 117.809 43.084 118.073 42.7493L119.089 41.6118C119.355 41.3994 119.699 41.2688 119.996 41.0996C120.093 41.0442 120.341 40.8946 120.341 40.7555C120.341 39.9645 120.507 40.0769 119.868 39.5903C119.5 39.3103 119.634 39.2607 119.13 38.951C118.838 38.771 118.717 38.468 118.539 38.2287C118.223 38.227 117.753 38.1774 117.536 38.4508C117.435 38.5786 117.346 38.6868 117.259 38.8194C116.764 39.5769 117.341 38.9606 116.446 39.8586C116.317 39.9886 116.282 40.0859 116.147 40.2052L115.504 40.8106C115.357 40.9547 115.316 40.9539 115.143 41.0517C114.125 41.6258 114.354 41.8641 113.857 42.2626C113.598 42.4699 113.449 42.5263 113.185 42.7959C112.394 43.6063 112.702 43.2224 111.75 43.8559C111.442 44.0606 111.415 44.2742 111.147 44.5015C111.021 44.6077 110.903 44.6447 110.783 44.7407C110.542 44.9342 110.469 45.2192 110.197 45.4027C110.016 45.525 110.007 45.4766 109.838 45.6457C109.574 45.909 109.56 46.046 109.203 46.2593C108.843 46.474 108.855 46.6735 108.596 46.9012C108.328 47.1369 108.145 47.0502 107.897 47.4066C107.494 47.9857 107.301 47.7599 106.952 48.3565C106.796 48.6233 106.448 48.6691 106.259 48.9108C105.929 49.3307 106.214 49.232 105.659 49.517C105.508 49.5945 105.427 49.6523 105.311 49.7708C104.823 50.2665 105.271 49.8945 104.654 50.3623C104.282 50.6442 104.023 50.9633 103.65 51.2521C103.529 51.3458 103.429 51.4065 103.296 51.5009C103.167 51.5934 103.232 51.534 103.14 51.6461C102.527 52.3923 102.544 52.0088 102.006 52.6643C101.882 52.8151 101.829 52.8671 101.639 52.9429C101.154 53.1373 101.26 53.2504 100.987 53.5393C100.869 53.6639 100.746 53.6834 100.602 53.7554C100.29 53.9117 100.189 54.0819 99.9494 54.3082C99.3793 54.8455 99.0994 54.6721 98.6423 55.4977L98.1557 56.2605C97.9316 56.6937 97.8996 57.1217 97.8996 57.644L97.8993 57.6441Z" fill="#1F319D"/>
<path fill-rule="evenodd" clip-rule="evenodd" d="M138.148 38.2071C138.148 38.5496 138.26 38.9487 138.395 39.1677C138.64 39.5649 138.757 39.4141 139.22 39.4161L146.129 39.3733C149.218 39.3733 152.308 39.3733 155.397 39.3733C156.486 39.3733 170.867 39.4363 171.586 39.3424C172.202 39.262 172.334 39.3726 172.45 39.0463C172.789 38.0971 172.596 37.93 172.604 36.9538C172.606 36.6954 172.635 36.5987 172.509 36.4447C172.256 36.1345 171.527 36.1769 171.059 36.1771L139.821 36.1339C139.612 36.1339 138.78 36.087 138.717 36.0988C138.483 36.1425 138.148 36.3992 138.148 36.6955V38.2072L138.148 38.2071Z" fill="#1F319D"/>
<path fill-rule="evenodd" clip-rule="evenodd" d="M122.786 36.1338C122.715 36.1338 122.36 35.9351 122.404 35.5379C122.46 35.0342 122.344 34.6636 122.96 34.624C123.407 34.5952 123.499 34.5043 123.739 34.6994C124.022 34.9296 123.945 34.9557 123.945 35.6154C123.945 35.8055 123.678 36.1338 123.516 36.1338H122.786ZM114.033 35.745C114.085 35.8445 114.103 35.9647 114.282 36.0992C114.813 36.4999 115.822 36.2385 116.152 36.2867C116.317 36.3106 116.542 36.3217 116.663 36.3374C117.315 36.4215 117.626 36.3367 118.037 36.6819C118.145 36.7727 118.245 36.8347 118.38 36.8976C118.658 37.0266 118.879 37.1207 119.177 37.2183C119.713 37.3937 119.548 37.4935 119.791 37.7234C120.007 37.9274 120.22 37.9084 120.446 38.1902C120.558 38.3295 120.591 38.4239 120.682 38.5543C120.791 38.7104 120.838 38.7083 120.985 38.8111C121.473 39.1539 121.234 39.5951 121.811 40.2257C122.389 40.8576 122.268 42.7483 122.272 43.6064C122.273 43.7901 122.236 44.039 122.239 44.127C122.242 44.2361 122.344 44.4208 122.411 44.5029C122.524 44.6424 122.594 44.6496 122.744 44.7292C123.448 44.2546 123.1 44.2685 123.422 44.0297C123.821 43.7337 123.76 44.0014 124.138 43.3687C124.335 43.0402 124.643 43.0546 124.865 42.718C125.475 41.7919 125.187 42.6452 125.851 41.637C125.963 41.4659 126.062 41.4276 126.228 41.326C126.607 41.0937 126.564 40.8457 126.874 40.5941C127.037 40.4621 127.122 40.4889 127.284 40.3151C127.424 40.1639 127.416 40.0561 127.558 39.9008C127.81 39.6268 128.075 39.6314 128.265 39.2728C128.652 38.5412 129.26 38.9642 129.268 37.5144C129.271 36.9825 128.767 36.8389 128.628 36.7755C128.294 36.622 128.447 36.2615 128.029 36.0398C127.863 35.952 127.709 35.9336 127.609 35.7721C127.267 35.2225 127.699 35.5053 126.926 35.0765C126.736 34.9708 126.737 34.8416 126.65 34.6636C126.431 34.2126 126.086 34.3798 125.903 34.0334C125.81 33.8571 125.812 33.7428 125.651 33.599C125.516 33.4787 125.362 33.463 125.226 33.3761C124.926 33.1844 125.081 32.8447 124.601 32.6233C124.388 32.5251 124.312 32.534 124.209 32.3264C123.84 31.5818 123.987 32.0174 123.507 31.6509C123.365 31.5429 123.347 31.3656 123.253 31.2156C123.019 30.8437 122.688 30.9769 122.522 30.612C122.44 30.431 122.427 30.3191 122.256 30.1888C122.097 30.0675 121.916 30.0435 121.809 29.9483C121.568 29.7347 121.776 29.3721 121.124 29.2564C120.856 29.209 120.304 29.4366 120.124 29.5662C119.984 29.6676 119.921 29.7938 119.808 29.9396C119.709 30.0687 119.607 30.1562 119.494 30.2709C119.358 30.4084 119.243 30.4571 119.132 30.598C118.835 30.9754 117.517 32.2073 117.423 32.3326C117.236 32.582 117.008 32.795 116.754 32.9982L115.732 34.0422C115.622 34.186 115.52 34.2705 115.396 34.3952C115.156 34.636 114.947 34.8446 114.709 35.0864C114.451 35.3483 114.162 35.501 114.033 35.745H114.033Z" fill="#1F319D"/>
<path fill-rule="evenodd" clip-rule="evenodd" d="M51 46.6729C51 46.8137 51.1076 46.9684 51.1819 47.0513C51.2878 47.1694 51.392 47.2001 51.5619 47.2301C51.9392 47.297 52.1362 47.321 52.5876 47.3208L84.3808 47.323C84.5324 47.3358 84.6911 47.3984 84.889 47.356C85.0884 47.3134 85.37 46.9635 85.37 46.716V45.0748C85.37 44.8266 85.0779 44.4259 84.8988 44.4063C84.682 44.3828 84.1536 44.4721 83.8692 44.471C75.6948 44.4372 67.4612 44.47 59.2814 44.47C58.2365 44.47 52.4367 44.405 51.5376 44.536C51.2802 44.5735 51.2898 44.5505 51.169 44.7265C51.1066 44.8175 51 44.9666 51 45.1179V46.6729H51Z" fill="#1F319D"/>
<path fill-rule="evenodd" clip-rule="evenodd" d="M99.7444 34.9674C99.7444 34.8663 99.9354 34.6823 100.025 34.6449C100.2 34.5715 100.643 34.5788 100.86 34.5788C100.973 34.5788 101.246 34.8358 101.246 34.9675C101.246 35.5356 101.339 35.8079 100.992 36.0522C100.825 36.1701 100.054 36.0875 99.9733 36.0331C99.6582 35.8205 99.7444 35.41 99.7444 34.9675V34.9674ZM109.27 36.2632C109.409 36.2632 109.603 36.0387 109.67 35.9279C109.777 35.751 109.71 35.6118 109.583 35.4728C109.312 35.1755 109.175 35.3985 108.855 34.8239C108.622 34.4059 108.361 34.4572 108.136 34.1218C107.721 33.5025 107.771 33.7848 107.414 33.4672C107.082 33.172 107.33 33.1038 106.724 32.736C106.37 32.5213 106.376 32.2138 106.071 32.011C105.372 31.5457 105.718 31.6635 105.378 31.2835C105.131 31.0076 104.975 31.1583 104.661 30.623C104.417 30.209 104.18 30.2861 103.923 29.9399L103.668 29.549C103.516 29.3884 103.443 29.3261 103.177 29.3089C101.69 29.213 102.315 29.5161 101.839 29.9923C101.725 30.1068 101.778 30.0744 101.632 30.1292C100.983 30.3738 101.404 30.7204 100.737 30.9991C100.256 31.2 100.422 31.5333 100.108 31.7478C99.9038 31.8871 99.8559 31.7907 99.6667 31.9947C99.3238 32.3639 99.6995 32.3707 98.9927 32.6986C98.5774 32.8913 98.7382 33.2849 98.3483 33.4753C98.1467 33.5739 98.0529 33.5255 97.9152 33.7304C97.7912 33.9154 97.8405 34.0054 97.6769 34.1816C97.4924 34.3801 97.4656 34.3114 97.2399 34.4327C96.9921 34.5658 97.0538 34.6477 96.949 34.8742C96.8827 35.0174 96.7614 35.1317 96.5861 35.2001C95.985 35.4345 96.3094 35.6065 95.9384 35.9303C95.7737 36.0741 95.6193 36.0497 95.4635 36.1866C95.2877 36.3411 95.3393 36.4735 95.2278 36.6404C94.9762 37.0173 94.6623 36.7162 94.4687 37.2606C94.3907 37.4798 94.5401 38.1834 94.6549 38.3627C94.7508 38.5121 94.8729 38.5946 95.0161 38.6903C95.162 38.7876 95.269 38.8847 95.375 39.0202C95.9841 39.7984 95.7278 39.3632 96.0883 39.7276C96.216 39.8567 96.2794 39.9738 96.3907 40.1142C96.529 40.289 96.5922 40.2968 96.7666 40.427C97.0791 40.6605 97.1475 40.9484 97.4448 41.1699C97.6167 41.298 97.6797 41.3128 97.8243 41.4788C97.9378 41.6088 98.0078 41.7444 98.1234 41.8689C98.3774 42.1426 98.4267 41.9741 98.8429 42.5699C99.0561 42.8748 99.3226 42.9316 99.5555 43.2349C100.11 43.9562 100.01 43.6542 100.248 43.9203C100.593 44.3074 100.412 44.3114 100.903 44.6426L101.106 44.5009C101.145 44.4687 101.249 44.3675 101.279 44.3302C101.622 43.9033 101.243 42.1579 101.587 40.8824C101.665 40.5945 101.786 40.5745 101.926 40.3595C102.17 39.9843 102.311 39.3443 102.425 39.1344C102.539 38.9264 102.74 38.8832 102.888 38.7361C103.073 38.551 103.06 38.3652 103.208 38.1941C103.394 37.9786 103.532 38.007 103.724 37.8499C104.007 37.6171 103.992 37.4941 104.109 37.3737C104.297 37.1799 104.953 37.1572 105.491 36.6916C106.198 36.0796 108.283 36.2632 109.27 36.2632H109.27Z" fill="#1F319D"/>
<path fill-rule="evenodd" clip-rule="evenodd" d="M86.3998 36.8248C86.3998 36.5025 86.2423 36.4138 86.0284 36.2917C85.81 36.1668 85.6342 36.1439 85.2905 36.1832C84.6251 36.2592 80.9305 36.2201 80.0923 36.2201C74.0333 36.2201 67.8106 36.2689 61.7698 36.2197C61.3324 36.2162 61.3573 36.1924 61.1346 36.444C60.9728 36.6268 60.9958 36.843 60.9978 37.1702C60.9998 37.5127 60.955 37.6935 60.9528 37.9901C60.9493 38.4612 61.1242 39.1915 61.4371 39.2765C61.6056 39.3224 79.3345 39.2868 80.6072 39.2868C81.3042 39.2868 84.4534 39.245 84.9816 39.289C85.1962 39.3068 85.5183 39.382 85.7819 39.3125C86.583 39.1009 86.4 37.4636 86.4 36.8246L86.3998 36.8248Z" fill="#1F319D"/>
<path fill-rule="evenodd" clip-rule="evenodd" d="M137.093 46.216C137.011 46.6648 136.941 46.6902 137.124 46.9685C137.551 47.6171 138.262 47.4154 138.575 47.4059C139.22 47.3866 139.902 47.4073 140.55 47.4073C143.182 47.4073 145.814 47.4073 148.446 47.4073C151.103 47.4073 153.632 47.3642 156.298 47.3642C156.784 47.3642 161.997 47.4 162.211 47.3557C162.391 47.3183 162.623 47.021 162.674 46.8282C162.742 46.5723 162.649 46.172 162.649 45.8955C162.649 45.3718 162.808 45.1556 162.562 44.7301C162.329 44.3276 162.216 44.3836 161.619 44.3838H146C145.527 44.3839 145.223 44.3403 144.756 44.3407H137.89C137.792 44.3407 137.578 44.4338 137.506 44.4719C136.64 44.9251 137.247 45.3791 137.093 46.2161L137.093 46.216Z" fill="#1F319D"/>
<path fill-rule="evenodd" clip-rule="evenodd" d="M120.813 57.7304C120.813 57.501 120.824 57.1688 120.865 56.9631C120.915 56.7131 121.108 56.6366 121.234 56.5565C121.396 56.4538 121.523 56.3242 121.627 56.1751C121.776 55.9619 121.775 55.9109 122.142 55.9152C122.497 55.9195 122.748 55.7677 123.072 56.1043C123.416 56.4623 123.411 56.2694 123.64 56.5259C123.86 56.7726 123.908 56.8394 123.903 57.2116C123.897 57.5856 123.981 57.6241 123.877 57.9199C123.807 58.1205 123.761 58.3518 123.695 58.5156C123.603 58.7429 123.45 58.7392 123.22 58.8153C123.082 58.8612 122.772 59.0101 122.652 59.0234C122.651 59.0235 121.903 58.9756 121.894 58.9739C121.777 58.9491 121.526 58.756 121.418 58.6756C121.19 58.5053 120.813 58.0247 120.813 57.7304V57.7304ZM112.96 50.949C112.96 51.3277 113.262 51.5426 113.475 51.6833C113.714 51.8413 113.6 52.1574 114.155 52.5966C114.239 52.6632 114.293 52.6844 114.359 52.7805L114.878 53.4671C114.961 53.5667 114.951 53.5843 115.052 53.6807C115.617 54.2217 115.5 54.285 116.017 54.7396C116.348 55.0303 116.341 55.1895 116.533 55.4296C116.67 55.6002 116.812 55.6612 116.963 55.8172C117.338 56.2046 116.902 56.0776 117.681 56.6932C117.852 56.8288 117.857 56.9865 117.971 57.1786C118.334 57.7887 118.315 57.3658 118.707 58.0354C119.084 58.6782 119.178 58.5913 119.447 58.9327C119.699 59.2543 119.852 59.6339 120.154 59.8186C120.708 60.1577 120.876 60.4124 121.044 60.5212C121.412 60.7598 122.644 60.8123 123.105 60.7298C123.917 60.5844 123.77 60.4164 124.134 60.1669C124.304 60.0499 124.48 60.0172 124.639 59.898C125.039 59.5986 124.972 59.2392 125.244 58.9089C125.514 58.5799 125.661 58.268 125.661 57.7305C125.661 56.388 125.717 56.8381 125.148 55.8714C124.859 55.3804 124.522 54.9512 124.017 54.6778C123.864 54.5952 123.605 54.5148 123.497 54.4231C123.36 54.3059 123.335 54.1356 123.156 53.9891C122.984 53.8486 122.811 53.8231 122.652 53.7193C122.473 53.6035 122.404 53.4344 122.279 53.2736C122.013 52.9313 121.875 53.1421 121.438 52.5653C121.291 52.3721 121.216 52.345 121.008 52.2207C120.591 51.9723 120.501 51.767 120.175 51.5042L119.415 50.887C118.942 50.3489 118.582 50.1199 118.507 50.0301C117.905 49.3115 117.901 49.5935 117.628 49.3595C117.463 49.2173 117.474 48.9356 117.115 48.7095C117.032 48.6569 116.942 48.6329 116.858 48.5794C116.692 48.4734 116.653 48.2843 116.53 48.1328C116.156 47.6746 115.603 47.8364 115.349 48.2998C115.287 48.411 115.292 48.4628 115.197 48.5359C115.143 48.5776 115.121 48.5782 115.057 48.6113L114.728 48.8414C114.568 49.0132 114.548 49.1571 114.427 49.3165C114.327 49.4493 114.125 49.5117 113.979 49.642C113.766 49.8305 113.797 49.8553 113.662 50.1005C113.553 50.2983 112.96 50.5295 112.96 50.9489L112.96 50.949Z" fill="#1F319D"/>
<path fill-rule="evenodd" clip-rule="evenodd" d="M132.923 33.3157C132.65 33.0423 132.745 32.9541 132.26 32.558C132.174 32.4873 132.214 32.5131 132.11 32.4493C131.746 32.2236 131.919 32.0432 131.299 31.6246C130.898 31.3537 131.158 31.4061 130.779 31.0248C130.427 30.6703 130.423 30.8669 130.2 30.5278C129.767 29.8665 129.584 30.0491 129.364 29.6854C129.007 29.0962 128.747 29.1671 128.543 28.87C128.338 28.572 128.306 28.507 128.003 28.2908C127.426 27.8787 127.775 27.8874 127.17 27.4451C127.065 27.3685 126.957 27.3238 126.88 27.2181C126.669 26.9276 126.761 26.9213 126.354 26.6245C125.932 26.3153 126.148 26.4899 125.834 26.0687C125.595 25.7477 124.931 25.3637 124.374 25.3354C124.167 25.4749 123.687 26.173 123.687 26.5016C123.687 26.6204 123.983 27.0767 124.068 27.2006L124.136 27.3061C124.351 27.6757 124.242 27.3747 124.578 27.7213C124.68 27.8262 124.756 27.8959 124.858 28.0014C124.984 28.1312 124.981 28.2095 125.073 28.3029C125.178 28.4084 125.245 28.378 125.373 28.5201L125.85 29.1192C125.884 29.1661 126.539 29.6369 126.668 29.8573C126.809 30.0986 127.121 30.1997 127.452 30.6171C127.587 30.7885 127.491 30.7848 127.684 30.9014L127.862 31.0246C127.914 31.0746 127.938 31.1039 127.989 31.1559C128.15 31.3191 128.258 31.3903 128.356 31.5635C128.494 31.8064 128.444 31.69 128.626 31.8103C128.878 31.9759 129.17 32.4082 129.258 32.5133C129.347 32.6193 129.432 32.615 129.556 32.7314C129.651 32.8202 129.718 32.8978 129.813 32.9916C130.058 33.2349 129.937 33.1059 130.059 33.3054C130.179 33.5017 130.188 33.4007 130.349 33.5314L130.831 34.0837C130.896 34.1932 130.814 34.1299 130.928 34.2448L131.67 34.7939C131.838 34.9122 131.812 34.8822 131.926 35.0542C132.317 34.846 132.12 34.886 132.736 34.66C133.36 34.4312 133.489 33.8818 132.923 33.3159L132.923 33.3157Z" fill="#1F319D"/>
<path fill-rule="evenodd" clip-rule="evenodd" d="M100.86 27.02C100.752 27.1683 100.249 27.667 100.034 27.7431C99.9642 27.7676 99.8641 27.7811 99.8079 27.8182C99.6107 27.9488 99.714 28.3954 99.0771 28.6374C98.8315 28.7309 98.8941 28.8255 98.8192 28.9825C98.5634 29.5189 98.1346 29.3675 98.0048 29.7178C97.9272 29.9272 98.0572 29.7767 97.7605 30.0765C97.588 30.2508 97.651 30.2295 97.3931 30.3114C97.1223 30.3972 97.2175 30.4222 97.1326 30.6539C97.0727 30.8172 96.9527 30.8876 96.8386 31.0058C96.6007 31.2524 96.6611 31.088 96.4555 31.2249C96.3091 31.3224 96.3278 31.6749 95.9252 31.9005C95.733 32.0083 95.6013 31.9266 95.4949 32.1151C95.4213 32.2456 95.4475 32.445 95.1563 32.6813C95.1501 32.6864 95.0673 32.7481 95.0568 32.7541C94.983 32.7963 95.055 32.7648 94.968 32.7943C94.7472 32.8691 94.7025 32.7965 94.6217 33.0503C94.5106 33.3987 94.3585 33.5685 93.9974 33.6745C93.7576 33.7449 93.8364 33.8124 93.7489 34.029C93.5621 34.4909 93.1297 34.5485 93.0674 34.5957C92.9621 34.6753 92.9431 34.8803 92.8773 35.0091C92.4599 35.8257 92.2236 35.5463 92.9337 36.511C93.468 37.2371 93.4519 36.7545 93.9883 36.5163C94.1214 36.4571 94.2681 36.4143 94.4113 36.3374C94.8128 36.1222 94.6907 35.8605 94.9249 35.6449C95.1289 35.4571 95.3861 35.5637 95.6007 35.0726C95.8234 34.5628 95.9535 34.7944 96.2588 34.5256C96.533 34.2845 96.3587 34.0292 96.8203 33.8382C97.286 33.6455 97.224 33.4039 97.3756 33.1879C97.5582 32.9275 97.8697 32.9736 98.0709 32.6351C98.1763 32.4576 98.124 32.4071 98.2929 32.2539C98.4213 32.1374 98.5267 32.1394 98.6825 32.0413C99.0377 31.8179 98.9007 31.5203 99.2307 31.3406C99.3804 31.2591 99.4956 31.2537 99.6199 31.1276C99.7199 31.0262 99.7702 30.8881 99.8434 30.748C100.048 30.3558 100.26 30.5197 100.525 30.1814C100.646 30.0265 100.643 29.9266 100.73 29.7833C100.828 29.6221 100.929 29.6422 101.105 29.5556C101.259 29.4792 101.342 29.3837 101.437 29.2425C101.545 29.0819 101.537 28.9777 101.643 28.8452C101.846 28.5916 102.451 28.2461 101.898 27.7892C101.788 27.6984 101.659 27.6411 101.529 27.5564C101.15 27.3091 101.23 27.2693 100.86 27.0202V27.02Z" fill="#1F319D"/>
<path fill-rule="evenodd" clip-rule="evenodd" d="M128.914 32.8597C128.786 32.7537 128.689 32.8157 128.491 32.6811C128.393 32.6149 128.263 32.4815 128.216 32.3522C128.147 32.1599 128.205 32.0578 127.992 31.9737C127.832 31.9104 127.492 31.8992 127.345 31.4155C127.164 30.8204 126.746 31.3413 126.477 30.5181C126.356 30.1469 126.3 30.4843 125.799 29.9919C125.572 29.7683 125.712 29.8171 125.598 29.5895C125.492 29.3799 125.214 29.5095 124.9 29.0822C124.773 28.9092 124.859 28.8133 124.712 28.6667C124.56 28.5143 124.29 28.6122 124.025 28.1927C123.925 28.0356 123.976 27.8977 123.817 27.797C123.742 27.7493 123.498 27.6813 123.387 27.6254C123.041 27.4524 122.791 27.2492 122.601 27.3474C122.487 27.4067 122.329 27.5151 122.234 27.587C122.04 27.7338 121.757 27.9494 121.628 28.1431C121.723 28.3243 121.755 28.3768 121.875 28.5429C122.088 28.8392 122.062 29.2172 122.305 29.4049C122.451 29.5169 122.571 29.5064 122.723 29.5893C123.058 29.771 122.912 30.0689 123.25 30.3116C123.418 30.432 123.517 30.377 123.681 30.5261C123.939 30.7612 123.797 31.0838 124.23 31.226C124.443 31.2962 124.466 31.2813 124.602 31.4565C124.874 31.8107 124.545 31.8458 125.196 32.111C125.591 32.2721 125.433 32.5738 125.735 32.8209C125.891 32.949 126.003 32.9044 126.167 33.0342C126.368 33.193 126.304 33.1983 126.391 33.4128C126.577 33.8717 126.877 33.6578 127.11 33.9853C127.318 34.2785 127.12 34.436 127.695 34.6483C128.134 34.81 127.938 35.0901 128.246 35.3464C128.601 35.6414 128.668 35.3088 128.899 35.9418C129.043 36.3378 129.366 36.2562 129.622 36.4669L129.793 36.6398C129.82 36.6799 129.976 37.0462 130.29 37.0279C130.571 37.0115 130.809 36.5647 130.92 36.4169C131.293 35.9173 131.797 35.8041 131.156 35.3978C130.762 35.1481 130.752 34.8432 130.677 34.6702C130.588 34.4641 130.507 34.519 130.3 34.4451C129.875 34.2928 129.881 33.8609 129.792 33.7474C129.669 33.5907 129.559 33.674 129.375 33.5628C128.948 33.3062 129.097 33.0118 128.914 32.8599L128.914 32.8597Z" fill="#1F319D"/>
<path fill-rule="evenodd" clip-rule="evenodd" d="M105.065 38.2934C104.633 39.1152 104.477 38.6416 103.968 39.3056C103.794 39.5326 103.419 39.852 103.371 39.9574C103.343 40.0208 103.262 40.6424 103.264 40.7158C103.268 40.8896 103.318 40.8684 103.42 40.9855C103.646 41.2443 103.68 41.3403 104.035 41.5763C104.119 41.6321 104.209 41.698 104.294 41.747C104.392 41.8033 104.44 41.8185 104.539 41.8896C105.062 42.2663 104.805 42.3098 105.361 42.7474C105.504 42.8603 105.634 43.019 105.762 43.164C106.112 43.5613 106.218 43.6177 106.442 44.1636C106.559 44.4473 106.842 44.4991 107.202 45.0401C107.471 45.4438 107.633 45.5751 108.078 45.1711C108.518 44.7723 108.872 44.9303 109.227 44.2535C109.329 44.0588 109.399 44.0371 109.519 43.8573C110.094 43.0002 109.715 43.4788 109.938 42.8961C110.032 42.6477 110.109 42.75 110.171 42.4833C109.843 42.3248 109.645 42.4519 109.426 42.0671C109.339 41.9142 109.329 41.758 109.24 41.6493C109.127 41.5098 108.403 41.1083 108.256 40.912C108.082 40.6795 107.964 40.4584 107.787 40.2185C107.381 39.669 106.86 39.7536 106.427 39.2545C105.654 38.3623 106.241 38.8917 105.436 38.4811C105.3 38.4114 105.2 38.3722 105.065 38.2936L105.065 38.2934Z" fill="#1F319D"/>
<path fill-rule="evenodd" clip-rule="evenodd" d="M92.4817 34.3947C92.8853 34.191 92.6564 34.2522 92.8483 33.9862C92.9067 33.9052 93.0455 33.7849 93.125 33.7033C93.2821 33.5419 93.2257 33.5865 93.4327 33.4946C93.6578 33.3948 93.5437 33.4043 93.6533 33.1983L94.0459 32.7729C94.3208 32.5267 94.3168 32.8182 94.4732 32.4257C94.5465 32.2417 94.8133 31.951 94.9835 31.8594C95.2164 31.7339 95.1757 31.8788 95.2892 31.6056C95.3661 31.4206 95.6025 31.1779 95.7649 31.0479C95.9132 30.9294 95.9797 30.9871 96.0869 30.8537C96.1931 30.7215 96.1284 30.6815 96.2997 30.5064C96.7897 30.0053 96.7545 30.1991 96.903 30.0338C96.9906 29.9363 97.0025 29.8251 97.0952 29.7091C97.1865 29.5948 97.4141 29.4044 97.5515 29.3477C98.0615 29.1371 97.7209 28.921 98.2978 28.5009C98.6332 28.2566 98.384 28.6834 98.6937 28.122C98.7696 27.9847 99.0785 27.6823 99.2179 27.6129C99.4378 27.5035 99.3914 27.5853 99.5059 27.3412C99.6345 27.067 100.096 26.5745 100.174 26.4585C99.9727 26.1564 99.6298 25.5214 99.4843 25.3814C99.2574 25.163 99.1352 25.1314 98.7557 25.4198C98.5935 25.5431 98.6543 25.581 98.4406 25.7074C98.1182 25.8982 97.9597 25.9498 97.7619 26.2768C97.4439 26.8022 97.5526 26.4416 97.1155 26.8787C96.9597 27.0346 96.9642 27.0152 96.8562 27.2224C96.767 27.3938 96.6912 27.411 96.5344 27.5031C96.0529 27.7858 96.1585 27.8813 95.9523 28.1697C95.8103 28.368 95.487 28.3662 95.2668 28.7322C94.9606 29.2412 95.2598 28.9422 94.8004 29.2129C94.341 29.4836 94.441 29.8147 94.0816 30.0012C93.7856 30.1549 93.6716 30.2709 93.5171 30.556C93.4977 30.5919 93.49 30.6137 93.4741 30.6423C93.3313 30.9009 93.013 30.8926 92.7919 31.2082C92.713 31.3208 92.6349 31.5296 92.5442 31.6067C92.4561 31.6814 92.2898 31.7383 92.1665 31.8312C91.7905 32.1144 91.8592 32.375 91.6343 32.5048C91.4717 32.5985 91.4565 32.5372 91.2363 32.752C90.867 33.1124 91.0035 33.24 90.7665 33.4886C90.5213 33.7459 90.323 34.0133 90.5698 34.268C90.6823 34.3841 90.7725 34.4349 90.9188 34.5221C91.1761 34.6754 91.4446 34.8103 91.6779 34.9674L92.482 34.3947H92.4817Z" fill="#1F319D"/>
</g>
<path d="M33.5625 90.2812H39.75C43.4896 90.2917 45.3594 92.3594 45.3594 96.4844V101.25C45.3594 103.823 44.1146 105.568 41.625 106.484L46.7031 121.062H42.7188L38.5781 107.047L37.1719 107.234V121.062H33.5625V90.2812ZM37.1719 93.8281V103.891H38.7031C39.401 103.891 39.901 103.839 40.2031 103.734C41.2344 103.307 41.75 102.479 41.75 101.25V96.4844C41.75 94.7135 40.9271 93.8281 39.2812 93.8281H37.1719ZM59.1094 103.891V107.453H52.8281V117.516H60.125V121.062H49.2188V90.2812H60.125V93.8281H52.8281V103.891H59.1094ZM63.4062 90.2812H69.5938C73.3333 90.2917 75.2031 92.3594 75.2031 96.4844V101.25C75.2031 104.292 73.8542 106.25 71.1562 107.125C70.5 107.344 69.5312 107.453 68.25 107.453H67.0156V121.062H63.4062V90.2812ZM67.0156 93.8281V103.891H68.5469C69.2448 103.891 69.7448 103.839 70.0469 103.734C71.0781 103.307 71.5938 102.479 71.5938 101.25V96.4844C71.5938 94.7135 70.7708 93.8281 69.125 93.8281H67.0156ZM88.9375 110.344L90.375 121.062H86.7031L85.8125 114.328H80.2969L79.3906 121.062H75.75L77.1562 110.406L80.3281 90.2812H85.7812L88.9375 110.344ZM85.3438 110.766L83.0469 93.375L80.75 110.766H85.3438ZM93.1094 90.2812H96.7188V121.062H93.1094V90.2812ZM100.875 90.2812H107.062C110.802 90.2917 112.672 92.3594 112.672 96.4844V101.25C112.672 103.823 111.427 105.568 108.938 106.484L114.016 121.062H110.031L105.891 107.047L104.484 107.234V121.062H100.875V90.2812ZM104.484 93.8281V103.891H106.016C106.714 103.891 107.214 103.839 107.516 103.734C108.547 103.307 109.062 102.479 109.062 101.25V96.4844C109.062 94.7135 108.24 93.8281 106.594 93.8281H104.484ZM124.469 90.2812H128.078V103.891H133.047V90.2812H136.656V121.062H133.047V107.453H128.078V121.062H124.469V90.2812ZM152.594 115.391C152.594 119.505 150.562 121.568 146.5 121.578C142.438 121.578 140.406 119.516 140.406 115.391V95.9531C140.406 91.8385 142.438 89.7812 146.5 89.7812C150.562 89.7812 152.594 91.8385 152.594 95.9531V115.391ZM148.984 95.9531C148.984 94.2135 148.161 93.3385 146.516 93.3281H146.484C144.839 93.3281 144.016 94.2031 144.016 95.9531V115.391C144.016 117.141 144.844 118.016 146.5 118.016C148.156 118.016 148.984 117.141 148.984 115.391V95.9531ZM165.828 113.578L171.547 90.2812H175.25V121.062H171.828V99.2656L167.047 121.062H164.719L159.812 99.375V121.062H156.344V90.2812H160.062L165.828 113.578ZM189.203 103.891V107.453H182.922V117.516H190.219V121.062H179.312V90.2812H190.219V93.8281H182.922V103.891H189.203Z" fill="#1F319D"/>
<defs>
<clipPath id="clip0_14_130">
<rect width="121.651" height="83.4738" fill="white" transform="translate(51)"/>
</clipPath>
</defs>
</svg>
