<svg width="35" height="35" viewBox="0 0 35 35" fill="none" xmlns="http://www.w3.org/2000/svg">
<path d="M30.7416 10.2083C30.4896 9.77174 30.1288 9.4079 29.6943 9.15231C29.2598 8.89673 28.7665 8.75812 28.2625 8.75H9.59579L8.74996 5.45417C8.6645 5.13601 8.47384 4.85617 8.20903 4.66021C7.94422 4.46425 7.62086 4.36372 7.29163 4.375H4.37496C3.98819 4.375 3.61725 4.52865 3.34376 4.80214C3.07027 5.07563 2.91663 5.44656 2.91663 5.83333C2.91663 6.22011 3.07027 6.59104 3.34376 6.86453C3.61725 7.13802 3.98819 7.29167 4.37496 7.29167H6.18329L10.2083 22.2542C10.2938 22.5723 10.4844 22.8522 10.7492 23.0481C11.014 23.2441 11.3374 23.3446 11.6666 23.3333H24.7916C25.0609 23.3325 25.3248 23.2571 25.5538 23.1156C25.7829 22.974 25.9684 22.7717 26.0895 22.5312L30.8729 12.9646C31.0802 12.53 31.1767 12.0509 31.1538 11.57C31.1309 11.089 30.9893 10.6212 30.7416 10.2083ZM23.8875 20.4167H12.775L10.3979 11.6667H28.2625L23.8875 20.4167Z" fill="black"/>
<path d="M10.9375 30.625C12.1456 30.625 13.125 29.6456 13.125 28.4375C13.125 27.2294 12.1456 26.25 10.9375 26.25C9.72938 26.25 8.75 27.2294 8.75 28.4375C8.75 29.6456 9.72938 30.625 10.9375 30.625Z" fill="black"/>
<path d="M25.5209 30.625C26.729 30.625 27.7084 29.6456 27.7084 28.4375C27.7084 27.2294 26.729 26.25 25.5209 26.25C24.3128 26.25 23.3334 27.2294 23.3334 28.4375C23.3334 29.6456 24.3128 30.625 25.5209 30.625Z" fill="black"/>
</svg>
