<svg width="30" height="30" viewBox="0 0 30 30" fill="none" xmlns="http://www.w3.org/2000/svg">
<path d="M10.2 3.75L8.4375 5.5125L11.675 8.75H5C3.6125 8.75 2.5 9.8625 2.5 11.25V23.75C2.5 25.1375 3.6125 26.25 5 26.25H25C26.3875 26.25 27.5 25.1375 27.5 23.75V11.25C27.5 9.8625 26.3875 8.75 25 8.75H18.325L21.5625 5.5125L19.8 3.75L15 8.55L10.2 3.75ZM5 11.25H21.25V23.75H5V11.25ZM24.375 11.25C24.7065 11.25 25.0245 11.3817 25.2589 11.6161C25.4933 11.8505 25.625 12.1685 25.625 12.5C25.625 12.8315 25.4933 13.1495 25.2589 13.3839C25.0245 13.6183 24.7065 13.75 24.375 13.75C24.0435 13.75 23.7255 13.6183 23.4911 13.3839C23.2567 13.1495 23.125 12.8315 23.125 12.5C23.125 12.1685 23.2567 11.8505 23.4911 11.6161C23.7255 11.3817 24.0435 11.25 24.375 11.25ZM24.375 15C24.7065 15 25.0245 15.1317 25.2589 15.3661C25.4933 15.6005 25.625 15.9185 25.625 16.25C25.625 16.5815 25.4933 16.8995 25.2589 17.1339C25.0245 17.3683 24.7065 17.5 24.375 17.5C24.0435 17.5 23.7255 17.3683 23.4911 17.1339C23.2567 16.8995 23.125 16.5815 23.125 16.25C23.125 15.9185 23.2567 15.6005 23.4911 15.3661C23.7255 15.1317 24.0435 15 24.375 15Z" fill="#F9F9F9"/>
</svg>
