<svg width="39" height="39" viewBox="0 0 39 39" fill="none" xmlns="http://www.w3.org/2000/svg">
<path d="M6.5 8.125C5.63805 8.125 4.8114 8.46741 4.2019 9.0769C3.59241 9.6864 3.25 10.513 3.25 11.375V27.625C3.25 28.487 3.59241 29.3136 4.2019 29.9231C4.8114 30.5326 5.63805 30.875 6.5 30.875H32.5C33.362 30.875 34.1886 30.5326 34.7981 29.9231C35.4076 29.3136 35.75 28.487 35.75 27.625V11.375C35.75 10.513 35.4076 9.6864 34.7981 9.0769C34.1886 8.46741 33.362 8.125 32.5 8.125H6.5ZM6.5 11.375H26V27.625H6.5V11.375ZM30.875 11.375C31.306 11.375 31.7193 11.5462 32.024 11.851C32.3288 12.1557 32.5 12.569 32.5 13C32.5 13.431 32.3288 13.8443 32.024 14.149C31.7193 14.4538 31.306 14.625 30.875 14.625C30.444 14.625 30.0307 14.4538 29.726 14.149C29.4212 13.8443 29.25 13.431 29.25 13C29.25 12.569 29.4212 12.1557 29.726 11.851C30.0307 11.5462 30.444 11.375 30.875 11.375ZM21.125 14.625V24.375H24.375V14.625H21.125ZM30.875 17.875C31.306 17.875 31.7193 18.0462 32.024 18.351C32.3288 18.6557 32.5 19.069 32.5 19.5C32.5 19.931 32.3288 20.3443 32.024 20.649C31.7193 20.9538 31.306 21.125 30.875 21.125C30.444 21.125 30.0307 20.9538 29.726 20.649C29.4212 20.3443 29.25 19.931 29.25 19.5C29.25 19.069 29.4212 18.6557 29.726 18.351C30.0307 18.0462 30.444 17.875 30.875 17.875Z" fill="#F9F9F9"/>
</svg>
