<svg width="296" height="240" viewBox="0 0 296 240" fill="none" xmlns="http://www.w3.org/2000/svg">
<g opacity="0.05">
<g clip-path="url(#clip0_19_64)">
<path fill-rule="evenodd" clip-rule="evenodd" d="M-40.0182 254.032C-41.2208 252.168 -42.9967 252.234 -44.1113 250.715L-45.6108 248.408C-46.2564 247.534 -46.7827 247.495 -47.1837 246.358C-47.4488 245.608 -47.6434 244.003 -48.09 243.447C-48.603 242.807 -49.386 242.27 -49.8727 241.611C-50.4351 240.849 -50.5579 239.992 -50.9702 239.077C-51.515 237.866 -51.7884 237.922 -52.6291 237.115C-53.2762 236.492 -54.5038 233.359 -55.1748 232.226C-55.8096 231.152 -56.3011 231.391 -56.8797 230.122C-57.3238 229.15 -57.4749 228.524 -58.213 227.828C-59.7594 226.37 -61.7813 226.783 -64.5333 226.783C-81.5558 226.783 -98.5777 226.783 -115.6 226.783C-121.886 226.783 -124.843 225.602 -127.068 229.888C-126.663 230.503 -126.622 230.253 -126.267 231.081C-125.617 232.603 -125.425 234.216 -125.027 235.845C-124.139 239.481 -123.124 238.873 -122.327 240.947C-121.714 242.544 -120.945 245.603 -119.187 245.783C-114.22 246.292 -109.321 245.413 -104.311 245.415C-101.663 245.415 -99.2365 245.511 -96.886 245.129C-92.5073 244.419 -91.8392 244.931 -89.6936 244.607C-85.3173 243.945 -82.8161 243.911 -78.7377 244.552C-77.2607 244.784 -77.6162 244.545 -76.6689 245.548L-74.4054 247.807C-73.0512 249.237 -72.3351 251.536 -71.1232 252.682C-70.3461 253.417 -70.149 253.277 -69.5092 254.324C-68.8597 255.388 -68.6309 256.406 -67.7187 257.248C-65.9825 258.851 -66.9303 257.506 -65.7291 259.969C-64.8429 261.786 -63.9729 262.377 -63.092 263.674C-62.8196 264.075 -62.1818 265.343 -62.221 266.022C-62.308 267.531 -62.5389 269.927 -63.4275 271.202C-65.714 274.482 -65.2474 278.333 -66.6828 280.669C-67.0766 281.309 -67.5441 281.563 -67.9994 282.432C-68.7282 283.824 -68.9468 285.862 -69.3307 287.468C-70.5505 292.569 -71.425 290.144 -72.7 296.82C-73.7378 302.254 -76.3999 302.53 -75.6012 306.198C-74.3878 311.771 -71.179 309.893 -69.4051 312.67C-68.2068 314.546 -67.2062 314.062 -65.6739 315.26C-65.0342 315.76 -64.8243 316.394 -64.1269 316.971C-63.6794 317.34 -62.713 317.786 -62.1921 318.104C-60.2524 319.288 -60.1771 319.839 -58.7289 320.966C-57.1834 322.169 -56.4929 321.56 -54.9004 323.456C-53.7848 324.784 -52.4443 324.904 -50.8538 325.725C-48.4641 326.957 -48.8153 326.185 -46.4594 325.397C-43.5264 324.416 -44.3382 324.277 -42.8426 322.691C-42.31 322.127 -41.5021 321.931 -40.7596 321.527C-39.9673 321.096 -39.6357 320.784 -39.0434 320.17C-38.3494 319.452 -38.1171 319.212 -37.2984 318.662C-36.6851 318.251 -36.1486 317.832 -35.4433 317.448C-34.9044 317.154 -34.8897 317.168 -34.4485 316.819C-33.5389 316.098 -33.1021 315.144 -31.986 314.579C-30.7672 313.962 -30.0092 313.517 -29.2364 312.451C-28.5121 311.452 -27.5545 311.229 -26.4389 310.554C-25.3526 309.898 -25.0558 308.843 -24.0434 308.246C-23.6761 308.03 -23.4271 307.88 -23.0182 307.648C-19.3785 305.578 -19.6133 304.445 -17.7978 303.471C-17.1371 303.116 -16.3878 302.906 -15.7931 302.409C-14.275 301.138 -14.9005 300.293 -11.3816 301.378C-9.2878 302.024 -9.87961 302.938 -4.48163 303.842C0.189575 304.624 -0.221725 306.039 4.88475 307.08C6.47182 307.403 8.38167 307.588 9.68214 308.582C10.7542 309.401 11.5905 311.157 11.9794 312.633C12.4645 314.479 13.3488 315.406 13.9283 317.04C15.0205 320.119 15.0547 324.154 16.4539 327.069C16.8276 327.847 17.2467 328.365 17.5906 329.198C17.9305 330.02 18.0097 330.703 18.1731 331.709C18.4841 333.623 18.7111 335.487 19.1057 337.152C19.2799 337.888 19.5948 338.905 19.8594 339.488C20.1905 340.218 20.6595 340.638 20.9951 341.437C21.7267 343.178 21.7996 344.669 22.1747 346.627C22.5538 348.604 22.9675 349.898 24.5497 350.599C25.3039 350.933 26.1744 351.132 26.9012 351.49L29.1333 352.32C30.8172 352.654 32.418 353.003 34.5548 353.003H51.5773C52.8704 353.003 55.5843 352.374 56.2861 351.776C58.0311 350.287 60.3132 346.948 60.9348 344.642C61.3554 343.082 61.6729 341.675 61.9702 339.852C62.987 333.609 63.9842 335.359 64.7892 330.853C65.0925 329.155 65.2847 327.556 65.6588 325.895C66.3895 322.658 67.5393 323.294 68.7337 317.156C69.7989 311.684 69.1885 313.205 71.4251 310.95C72.8439 309.518 72.999 308.644 74.4369 308.174C76.7492 307.419 79.3516 307.207 81.62 306.546C82.5947 306.262 82.8847 306.195 83.7147 305.759C84.4341 305.382 84.8063 305.02 85.5952 304.754C87.6097 304.076 90.3774 303.682 92.456 302.981C92.8512 302.847 93.1804 302.747 93.5085 302.592C93.6572 302.521 94.4016 302.041 94.4016 302.041C94.8305 302.041 97.6951 302.494 97.9646 302.611C98.3548 302.779 98.7172 303.115 99.1809 303.38C100.282 304.007 101.599 304.238 102.299 305.316C103.52 307.201 105.044 306.901 106.35 308.309C106.768 308.759 106.673 308.99 107.161 309.493C107.851 310.205 108.767 310.464 109.601 311.023C110.47 311.605 110.933 312.237 111.702 312.9C113.871 314.769 115.405 314.579 116.449 316.28C117.024 317.215 117.606 317.533 118.651 318.054C119.761 318.606 120.107 318.897 120.81 319.871C121.626 321 123.345 321.486 124.459 322.362L125.025 322.881C126.896 324.911 128.147 325.121 130.527 326.223C132.284 327.036 132.631 328.624 134.492 326.653C135.616 325.462 137.464 325.212 138.622 324.105C139.844 322.937 139.135 322.754 140.984 321.945C145.017 320.179 144.067 319.581 146.146 318.257C147.529 317.376 148.398 317.348 149.535 316.049C150.481 314.969 151.707 314.732 152.82 313.918L153.959 312.888C154.145 312.694 154.117 312.717 154.314 312.519C157.597 309.224 160.094 311.028 158.86 305.195C158.617 304.044 157.72 303.362 157.312 302.389C156.44 300.309 156.329 297.382 155.388 295.401C154.89 294.351 154.162 293.589 153.71 292.545C152.795 290.431 152.819 287.618 151.864 285.477C151.634 284.96 151.358 284.353 151.049 283.932C150.09 282.622 149.59 280.705 149.247 279.011C148.231 273.99 147.406 275.079 146.606 272.753C145.274 268.878 145.844 270.071 145.829 267.155C145.814 264.091 146.94 264.455 148.088 262.882C149.65 260.743 149.713 260 151.879 257.796C152.678 256.984 152.979 255.848 153.531 254.914C154.119 253.92 155.073 253.827 155.726 252.768C157.141 250.471 156.372 250.899 158.42 248.756C159.177 247.963 159.606 246.99 160.383 246.191C160.835 245.727 160.967 245.439 161.589 245.227C162.128 245.043 162.66 244.967 163.279 244.759C163.67 244.628 163.724 244.615 164.069 244.468C164.55 244.263 164.348 244.138 164.82 244.138C167.709 244.138 171.049 244.277 173.649 244.636C175.804 244.934 176.93 244.47 181.07 245.109C183.282 245.45 186.312 245.153 188.837 245.228C190.077 245.265 191.073 245.604 192.408 245.606C194.861 245.609 197.615 245.335 200.016 245.705C205.473 246.545 204.345 244.661 206.9 241.187C208.366 239.194 208.385 238.081 209.007 235.298C210.074 230.525 212.197 230.717 210.557 228.384C209.748 227.233 208.008 227.121 206.561 226.986C204.058 226.753 188.041 226.969 184.71 226.969C180.574 226.969 148.609 227.257 144.902 226.808C142.383 226.503 139.296 228.363 138.195 231.061C137.972 231.608 137.895 231.818 137.686 232.368C136.682 235.009 136.471 233.995 135.462 235.581C134.686 236.8 133.904 239.745 133.027 240.588C130.907 242.628 131.395 242.128 130.311 245.126C129.851 246.4 129.323 246.389 128.728 247.348C128.144 248.288 128.201 248.852 127.14 249.382C126.066 249.918 125.662 249.758 124.929 250.782C124.237 251.748 124.52 252.226 123.398 252.874C122.387 253.459 121.865 253.41 121.22 254.49C119.925 256.658 118.748 256.771 117.645 258.334C116.362 260.153 115.465 259.843 113.86 261.965C112.628 263.594 110.873 263.694 109.811 265.144C109.133 266.071 108.913 266.199 107.764 266.71C104.864 267.999 106.455 268.508 103.6 269.955C97.5347 273.028 101.362 272.507 96.7061 274.07C95.5607 274.454 94.5958 275.053 93.7922 275.848C91.9807 277.64 89.1606 277.59 87.1295 279.102C83.9035 281.503 82.9508 280.894 79.3247 282.105C78.7007 282.314 78.4507 282.368 77.944 282.707C77.5274 282.986 77.3376 283.272 76.9331 283.503C74.5063 284.893 70.869 284.799 68.3018 285.664C66.279 286.346 65.3062 287.265 62.8598 287.606C60.9143 287.876 58.4557 288.277 56.4152 288.342L46.1533 289.023C44.5007 289.254 33.6236 289.007 31.8189 288.758L25.0588 288.16C24.0141 288.095 22.8061 287.926 21.8182 287.811C20.6644 287.676 19.7063 287.538 18.5262 287.33C17.1245 287.084 17.1118 286.717 16.0446 286.207C12.7409 284.629 7.59818 285.382 4.45387 283.045C2.83942 281.846 1.02249 281.739 -0.948502 281.063C-4.39896 279.879 -3.82528 279.264 -5.57912 278.477C-6.8253 277.919 -10.2924 277.239 -11.1096 276.626C-11.9152 276.022 -12.0472 275.358 -13.0982 274.818C-14.7562 273.966 -16.4763 273.528 -17.81 272.132C-19.4426 270.424 -21.0893 270.613 -22.3482 269.451C-23.1146 268.743 -23.0593 268.287 -24.1402 267.624C-24.6708 267.299 -24.9301 267.266 -25.4387 266.939C-27.2728 265.764 -28.6348 264.004 -30.4846 262.767C-32.9231 261.137 -32.1147 260.528 -34.4877 259.359C-36.1373 258.546 -35.3861 258.865 -36.2234 257.475C-36.5619 256.914 -37.4231 256.026 -38.0687 255.703C-38.6287 255.422 -38.8229 255.479 -39.2601 255.091C-39.5731 254.813 -39.7619 254.43 -40.0162 254.035L-40.0182 254.032Z" fill="#1F319D"/>
<path fill-rule="evenodd" clip-rule="evenodd" d="M-49.4824 25.4914C-50.0424 26.3435 -50.1373 26.4148 -51.0186 27.0306C-52.2491 27.8902 -53.7702 28.0902 -54.6799 29.3263C-56.0664 31.211 -57.8026 31.0954 -59.8299 33.0265C-61.4218 34.5423 -63.7772 35.1586 -64.9657 36.7412C-66.0754 38.2186 -68.023 38.3223 -69.2393 39.691C-70.9814 41.6501 -70.0991 40.4654 -71.651 41.7992C-73.6415 43.51 -73.5168 43.3908 -73.4958 45.3987C-73.4708 47.7547 -72.5875 50.6397 -71.9058 52.7339C-71.336 54.4846 -70.7359 55.2145 -69.9646 56.7827C-68.6192 59.5186 -68.5947 63.1286 -66.9695 65.6022C-65.2748 68.1811 -65.4572 71.7203 -64.0604 74.5096C-63.1258 76.3764 -62.7756 76.4721 -62.2406 78.682C-61.0531 83.5849 -60.8887 81.3387 -61.1255 85.9569C-61.1832 87.0887 -61.4018 87.358 -61.8796 88.1104C-62.6392 89.3056 -63.4985 90.1383 -64.3319 91.2731C-64.7877 91.8939 -65.1154 92.3377 -65.4289 93.0776C-66.1962 94.8876 -66.6252 94.6458 -67.7452 95.8305C-68.3951 96.5186 -68.6294 97.092 -69.0725 97.9481C-69.9128 99.5716 -70.8171 99.6514 -71.6955 101.119C-73.2713 103.751 -73.282 103.721 -75.4198 105.907C-76.6224 107.137 -76.9095 107.91 -78.6717 108.255C-81.4492 108.799 -84.6042 108.602 -87.4698 108.602C-89.0872 108.602 -90.2932 108.184 -91.8788 107.967C-93.325 107.769 -94.5032 108.054 -96.0707 108.054C-100.284 108.054 -103.87 107.376 -108.083 107.33C-109.169 107.319 -109.822 107.135 -111.122 107.14C-120.483 107.175 -120.095 105.247 -122.09 111.668C-122.555 113.165 -123.584 114.486 -124.2 115.91C-124.775 117.242 -125.836 121.862 -126.024 123.732L-126.532 126.32C-124.972 126.355 -123.8 127.05 -121.873 127.05H-63.8183C-63.138 127.05 -62.2523 126.698 -61.6923 126.478C-59.5545 125.636 -58.413 125.134 -57.5694 122.461C-57.0054 120.673 -56.4171 120.4 -55.5358 119.055C-54.8418 117.996 -54.3649 116.746 -53.8411 115.485C-53.2293 114.014 -52.2325 114.12 -51.3937 112.5C-50.6674 111.096 -50.6538 110.215 -49.5303 109.102C-48.6593 108.239 -47.9051 106.978 -47.331 105.864C-46.9319 105.091 -46.8663 104.843 -46.5802 103.89C-46.3728 103.198 -46.0863 102.874 -45.6436 102.287C-44.5994 100.904 -44.9056 99.8893 -43.0975 99.4026C-40.7318 98.7659 -41.5696 98.3221 -40.1982 97.0611C-39.0396 95.996 -38.124 96.4164 -37.0446 94.7959C-34.9616 91.669 -34.429 92.8503 -33.0767 90.8039C-31.7552 88.804 -31.1179 89.4427 -28.8339 87.0917C-27.4723 85.6906 -25.6099 84.9387 -24.1754 83.6218C-22.0455 81.6672 -21.063 81.6877 -19.4793 80.3718C-18.7838 79.7934 -18.935 79.5351 -18.0972 79.0415L-14.5425 77.3677C-12.3392 76.2667 -13.8676 76.1984 -9.52505 74.4457C-6.47514 73.2147 -5.85548 71.828 -2.39768 70.9345C2.25885 69.7308 1.00094 69.4062 3.19104 68.4115C6.13091 67.0772 8.89909 67.8959 13.2314 65.313C15.2483 64.1104 19.1854 64.2121 21.9566 63.7957C23.3891 63.5808 25.0118 63.3266 26.6356 63.0857C31.05 62.43 36.8857 62.0222 41.3603 62.0222C48.897 62.0222 58.304 63.2976 65.8588 64.4474C68.4226 64.8374 69.9368 66.2634 74.1653 67.1215C80.4525 68.3975 78.8551 69.1404 82.1897 70.2663C83.8223 70.8178 86.1464 71.0915 87.6346 72.0225C88.1961 72.3735 88.1316 72.4782 88.5693 72.896C90.2351 74.4851 93.2424 74.4408 94.804 75.8553C95.6947 76.6626 95.7436 76.9368 96.9027 77.5516C98.5631 78.4317 100.335 78.8062 101.699 80.1514C102.987 81.4214 104.91 81.766 106.087 82.9846C106.689 83.6084 107.102 84.3244 107.888 84.8011C110.949 86.6574 110.504 87.3605 111.955 88.1453C113.852 89.173 114.541 90.1313 116.105 91.4028L122.081 97.3672C122.949 98.1411 124.057 98.4537 125.032 99.1074C125.465 99.3971 125.599 99.6968 126.031 99.9157C126.765 100.288 127.803 100.438 128.207 101.351C128.566 102.165 128.408 103.686 128.663 104.722C128.892 105.653 129.722 105.995 130.267 106.748C130.884 107.598 131.123 108.96 131.871 109.853C133.307 111.566 133.275 110.573 134.653 113.41C135.393 114.936 135.995 115.583 136.868 116.814C137.649 117.915 137.983 119.322 138.591 120.538C139.156 121.667 140.759 123.667 141.602 124.958C141.88 125.383 142.151 125.76 142.413 126.141C143.455 127.656 144.673 127.035 146.537 127.047L197.606 127.049C202.397 127.049 204.897 127.238 209.382 126.604C209.581 126.576 210.507 126.575 210.507 126.136C210.507 124.282 209.847 122.348 209.396 120.51C208.786 118.03 208.344 115.133 207.34 112.743C207.017 111.974 206.568 111.464 206.146 110.672C205.49 109.442 204.768 107.396 203.295 107.016C203.172 106.985 186.67 107.565 184.836 107.819C183.98 107.938 182.573 107.981 181.829 108.042L169.294 108.599C166.032 108.587 164.187 109.219 161.236 107.683L160.073 106.676C159.442 105.915 158.8 104.873 158.136 104.267C156.445 102.722 156.577 102.595 155.445 100.435C154.66 98.9399 154.2 99.804 152.597 96.7629C151.703 95.0676 150.657 94.6059 149.73 93.1095C146.428 87.7753 145.553 88.961 146.187 84.1294C146.464 82.0247 147.495 81.3327 148.208 79.6129C149.113 77.428 149.348 73.6754 150.372 71.9561C150.822 71.2002 151.295 70.8258 151.665 69.9861C152.271 68.6104 152.668 66.4644 153.061 64.8339C153.712 62.1319 154.344 62.1648 155.07 60.3064C155.698 58.6994 155.978 56.9183 156.469 55.1562C157.237 52.3938 160.001 48.8596 159.632 47.0432C159.029 44.0734 158.826 43.5783 156.406 42.1024C154.402 40.8802 154.431 40.8194 152.772 39.2293C151.646 38.1493 150.06 38.1244 148.732 36.7731C147.137 35.1506 146.394 35.2404 144.978 34.0242C143.623 32.859 143.21 32.0138 141.407 31.0894C139.476 30.0991 139.954 30.2098 138.699 28.9179C137.762 27.9536 136.878 27.595 135.546 27.2001C132.218 26.2134 133.83 26.1062 130.656 27.7461C127.882 29.1792 127.663 30.1973 126.233 30.9104C123.283 32.3818 124.523 32.1544 123.115 33.577C122.743 33.9539 122.445 34.0138 122.002 34.2686C119.19 35.8856 118.511 37.3789 115.417 39.0633C114.534 39.5439 114.155 40.238 113.439 40.8832C112.755 41.5005 111.82 41.7493 111.022 42.2549C109.938 42.9425 109.936 43.3185 109.144 44.1761C108.557 44.8123 108.72 44.6184 107.972 44.9904C105.942 46.0011 104.642 48.004 102.645 49.0586C101.887 49.4595 100.832 49.8903 100.135 50.336C97.6348 51.9346 98.8282 52.8351 92.9651 50.1501C90.7056 49.1154 87.462 49.0995 85.0552 47.9846C84.3426 47.6545 83.6427 47.2197 82.9341 46.8592C80.0778 45.4057 75.7593 45.5792 73.3824 43.2621C71.9166 41.8331 71.6711 39.2428 70.9272 37.1805C70.1994 35.1631 69.3161 33.2494 68.8505 31.0774C68.6353 30.0737 68.5087 29.3447 68.3135 28.3375C67.8949 26.179 67.5476 24.9239 66.5905 23.3354C64.8875 20.5087 65.2719 15.5584 63.8795 12.5821C63.1845 11.0963 62.449 9.61486 62.0978 7.82283C61.464 4.58629 61.7452 2.42578 58.3822 1.56417C57.4481 1.32483 56.8612 0.959842 55.9794 0.725491C52.4634 -0.20892 41.4958 -0.0997227 37.0506 0.275238C35.0903 0.44078 32.1392 -0.0673125 30.8221 0.314131C29.3055 0.752915 27.4514 1.26649 26.5192 2.69055C26.014 3.46241 25.7166 3.81842 25.4843 4.92386C24.8045 8.1564 25.1004 7.18011 23.7368 9.90057C22.5503 12.268 22.27 15.0922 21.8318 17.8221C21.5188 19.7732 20.6473 20.9175 19.9591 22.6717C18.3633 26.7414 19.1223 28.9658 16.9327 32.9208C14.7998 36.7741 16.4197 40.6225 13.1927 42.6244L11.8962 43.6775C10.985 44.4763 10.4025 44.7356 9.03261 44.9594C7.05379 45.282 5.25984 45.5294 3.48595 46.0639C2.70929 46.2977 1.82602 46.6632 1.1951 47.0162C0.397408 47.462 0.0873337 47.8544 -0.922134 48.1461C-3.47366 48.8831 -6.34554 49.0676 -8.75572 50.2064C-9.36463 50.4941 -10.1193 51.4295 -10.7815 51.4295C-11.2975 51.4295 -15.822 49.0725 -16.2788 48.8143C-19.6466 46.9085 -18.1011 46.6612 -20.8742 45.2786C-23.6233 43.9079 -21.5476 43.7717 -25.539 41.8147C-25.9899 41.5933 -26.4076 41.3405 -26.7622 41.0523C-27.9893 40.0545 -26.9158 40.4031 -29.9892 38.3144C-31.8569 37.0454 -33.3129 35.3147 -34.4921 34.6844C-36.8441 33.4279 -36.6294 32.503 -39.1545 31.2175C-40.4261 30.5698 -41.0081 29.6798 -41.9741 28.7947C-42.1257 28.6556 -42.3213 28.522 -42.4905 28.4078C-44.7026 26.9134 -46.6482 25.637 -49.4844 25.4914H-49.4824Z" fill="#1F319D"/>
<path fill-rule="evenodd" clip-rule="evenodd" d="M-3.25358 249.249C-4.11192 249.249 -6.88013 248.218 -7.35013 247.398L-8.32438 245.284C-8.84378 244.09 -8.7132 244.375 -8.63299 243.045C-8.49067 240.674 -8.97044 239.64 -6.37343 237.667C-5.93815 237.336 -4.78001 236.098 -3.61208 236.098C-0.225204 236.098 0.0912228 236.075 1.25866 237.891C2.34784 239.586 3.07951 239.061 3.78819 240.244C4.07528 240.724 4.09239 240.849 4.1012 241.569C4.11685 242.821 4.3917 243.802 4.08016 244.666C3.72313 245.657 3.48007 245.931 2.78949 246.644C1.91844 247.543 2.60607 247.427 1.23029 248.341C-0.507904 249.497 -0.908458 249.25 -3.25409 249.25L-3.25358 249.249ZM-16.1545 243.77C-16.1545 247.723 -14.6619 247.894 -13.4646 250.343C-13.1648 250.957 -12.9085 251.727 -12.5036 252.286C-11.5415 253.615 -10.2347 253.727 -8.90833 254.649C-8.22949 255.121 -7.95218 255.653 -7.23226 256.046C-6.572 256.406 -5.82713 256.486 -4.97124 256.663C-3.5397 256.96 -1.07522 256.939 0.340176 256.566C1.95512 256.139 2.81833 255.203 4.16966 254.442C9.53683 251.416 9.00814 248.744 10.7781 247.479C11.2173 247.166 11.1914 247.235 11.5822 246.838C12.0854 246.325 12.4248 245.826 12.7574 245.113C13.9767 242.498 14.4286 243.659 15.5334 241.915C15.9858 241.201 16.0959 240.548 16.6001 239.897C17.1851 239.143 17.5568 239.226 18.2112 238.617C19.0304 237.854 18.9056 237.733 19.4441 236.768C20.3812 235.088 21.4885 235.061 22.3395 233.693C22.9044 232.785 23.4737 231.846 24.2982 231.123C26.1098 229.534 27.2758 227.152 29.1802 225.688C30.3702 224.773 30.7874 223.422 31.969 222.503C34.0554 220.883 33.694 219.26 35.5393 218.288C36.4915 217.787 37.1904 217.064 37.6614 216.068C38.4796 214.339 39.6368 214.747 40.6438 213.08C41.1104 212.309 41.0796 211.806 41.8665 211.221C42.5742 210.696 42.9674 210.818 43.5484 210.014C44.0121 209.372 44.1432 208.638 44.6347 208.015C45.2891 207.186 45.5146 207.338 46.3074 206.798C47.78 205.795 47.6415 204.349 49.0061 203.521C50.9922 202.315 50.4679 201.673 51.7929 200.335C52.3861 199.736 53.0239 199.508 53.5012 198.971C53.9502 198.466 54.2407 197.733 54.6183 197.187C55.6551 195.689 56.6255 196.068 57.6589 194.259C58.4091 192.947 59.6084 192.338 60.5816 191.211L62.5282 188.629C62.9801 188.08 62.6993 188.36 63.2496 187.903C64.3104 187.021 64.6821 185.369 65.2665 183.931C66.1087 181.859 66.9842 182.197 68.0895 180.781L72.3303 175.971C73.4425 175.073 74.8794 174.521 76.1187 173.805C76.5251 173.571 77.5586 172.938 77.5586 172.35C77.5586 169.005 78.2536 169.48 75.5842 167.422C74.049 166.238 74.6055 166.029 72.502 164.719C71.2808 163.958 70.7785 162.676 70.0331 161.664C68.715 161.657 66.7538 161.447 65.8466 162.604C65.4225 163.144 65.0503 163.602 64.6884 164.162C62.6206 167.366 65.0303 164.76 61.2942 168.557C60.7533 169.107 60.6095 169.518 60.0451 170.022L57.3601 172.583C56.7482 173.192 56.5751 173.189 55.8512 173.603C51.6006 176.03 52.5563 177.038 50.4821 178.723C49.4032 179.6 48.7772 179.838 47.6777 180.979C44.3725 184.406 45.6588 182.782 41.6826 185.461C40.3983 186.327 40.2868 187.23 39.1643 188.191C38.64 188.64 38.1475 188.797 37.6482 189.203C36.6416 190.021 36.334 191.226 35.1984 192.002C34.4413 192.52 34.4041 192.315 33.6979 193.03C32.5979 194.143 32.5393 194.723 31.0471 195.625C29.5451 196.533 29.5969 197.376 28.5136 198.339C27.3927 199.336 26.6282 198.969 25.5933 200.477C23.9128 202.925 23.1044 201.97 21.6499 204.493C20.9989 205.622 19.5444 205.815 18.7526 206.837C17.3778 208.613 18.5657 208.196 16.2499 209.401C15.6195 209.729 15.2811 209.973 14.7945 210.474C12.7579 212.571 14.6286 210.997 12.0522 212.976C10.5003 214.168 9.41798 215.517 7.85928 216.739C7.35259 217.135 6.93493 217.392 6.38325 217.791C5.84135 218.182 6.11572 217.931 5.7313 218.405C3.16999 221.56 3.24237 219.939 0.995537 222.71C0.47858 223.348 0.253613 223.568 -0.536253 223.889C-2.56202 224.711 -2.1199 225.189 -3.26044 226.411C-3.75294 226.938 -4.26893 227.02 -4.86903 227.325C-6.17292 227.986 -6.59206 228.705 -7.59369 229.662C-9.97405 231.934 -11.1429 231.201 -13.0518 234.693L-15.0839 237.918C-16.0196 239.75 -16.1531 241.56 -16.1531 243.769L-16.1545 243.77Z" fill="#1F319D"/>
<path fill-rule="evenodd" clip-rule="evenodd" d="M151.917 161.573C151.917 163.021 152.386 164.709 152.949 165.635C153.972 167.315 154.462 166.677 156.396 166.686L185.245 166.505C198.146 166.505 211.047 166.505 223.949 166.505C228.497 166.505 288.551 166.771 291.551 166.374C294.125 166.034 294.676 166.502 295.161 165.122C296.574 161.108 295.768 160.401 295.803 156.273C295.813 155.18 295.933 154.771 295.407 154.12C294.35 152.808 291.304 152.988 289.35 152.988L158.906 152.806C158.033 152.806 154.559 152.607 154.295 152.657C153.32 152.842 151.918 153.928 151.918 155.181V161.573L151.917 161.573Z" fill="#1F319D"/>
<path fill-rule="evenodd" clip-rule="evenodd" d="M87.7706 152.805C87.4718 152.805 85.9914 151.965 86.1743 150.285C86.4061 148.155 85.9234 146.588 88.4955 146.42C90.3637 146.299 90.7482 145.914 91.7498 146.739C92.9314 147.713 92.6086 147.823 92.6086 150.613C92.6086 151.417 91.496 152.805 90.8166 152.805H87.7706ZM51.2178 151.161C51.4349 151.582 51.5117 152.09 52.2571 152.659C54.4746 154.353 58.6895 153.248 60.0682 153.452C60.7558 153.553 61.6944 153.6 62.1991 153.666C64.9237 154.022 66.2213 153.663 67.937 155.123C68.3879 155.507 68.8066 155.769 69.3719 156.035C70.5325 156.581 71.4535 156.979 72.6996 157.391C74.9377 158.133 74.249 158.555 75.2634 159.528C76.1633 160.39 77.0529 160.31 77.9993 161.502C78.4669 162.09 78.6033 162.49 78.9838 163.041C79.4387 163.701 79.6363 163.692 80.2481 164.127C82.2881 165.577 81.2898 167.443 83.6971 170.109C86.1097 172.782 85.6045 180.777 85.6221 184.406C85.626 185.183 85.4744 186.236 85.4837 186.607C85.4954 187.069 85.9229 187.85 86.2017 188.197C86.6761 188.787 86.9681 188.817 87.5921 189.154C90.5325 187.147 89.0794 187.206 90.4239 186.196C92.0912 184.944 91.8349 186.076 93.4161 183.401C94.2368 182.012 95.5231 182.073 96.4504 180.649C98.9999 176.733 97.7934 180.341 100.566 176.078C101.037 175.354 101.451 175.192 102.143 174.762C103.724 173.78 103.544 172.731 104.841 171.667C105.522 171.109 105.877 171.223 106.55 170.488C107.137 169.848 107.105 169.392 107.698 168.736C108.747 167.577 109.857 167.596 110.648 166.08C112.263 162.986 114.806 164.774 114.837 158.643C114.849 156.394 112.743 155.787 112.166 155.519C110.768 154.87 111.41 153.345 109.664 152.408C108.972 152.036 108.327 151.958 107.908 151.276C106.479 148.951 108.286 150.148 105.059 148.334C104.263 147.887 104.267 147.341 103.905 146.588C102.988 144.681 101.551 145.388 100.786 143.923C100.397 143.177 100.406 142.694 99.7326 142.086C99.1696 141.577 98.5245 141.511 97.9577 141.143C96.7071 140.333 97.3517 138.896 95.347 137.96C94.4574 137.544 94.1414 137.582 93.712 136.704C92.1709 133.555 92.7857 135.397 90.7799 133.848C90.1886 133.391 90.1128 132.641 89.7191 132.007C88.7424 130.434 87.3593 130.998 86.6683 129.454C86.3259 128.689 86.2687 128.216 85.5566 127.665C84.8934 127.152 84.1353 127.05 83.6873 126.648C82.6822 125.744 83.5523 124.211 80.8277 123.722C79.7111 123.521 77.4026 124.484 76.6534 125.032C76.067 125.46 75.8043 125.994 75.3353 126.611C74.9196 127.157 74.496 127.527 74.0226 128.012C73.4548 128.593 72.976 128.799 72.5123 129.395C71.2696 130.991 65.7655 136.201 65.3737 136.731C64.5936 137.785 63.6399 138.686 62.5796 139.545L58.3104 143.96C57.8536 144.568 57.4257 144.925 56.9082 145.453C55.909 146.471 55.036 147.353 54.0417 148.376C52.9652 149.483 51.7553 150.129 51.2192 151.161H51.2178Z" fill="#1F319D"/>
<path fill-rule="evenodd" clip-rule="evenodd" d="M-8.44956 147.873C-8.44956 147.445 -7.65186 146.667 -7.27918 146.509C-6.54849 146.198 -4.69879 146.229 -3.79056 146.229C-3.31958 146.229 -2.17808 147.316 -2.17808 147.873C-2.17808 150.276 -1.78926 151.427 -3.23791 152.46C-3.93632 152.959 -7.15643 152.61 -7.49389 152.379C-8.80952 151.48 -8.44956 149.745 -8.44956 147.873V147.873ZM31.3288 153.353C31.9089 153.353 32.7193 152.403 32.999 151.935C33.4461 151.187 33.1673 150.598 32.6371 150.01C31.5034 148.753 30.9322 149.696 29.5941 147.266C28.6208 145.498 27.5336 145.715 26.594 144.297C24.8588 141.678 25.0671 142.872 23.5759 141.528C22.1909 140.28 23.2282 139.992 20.6962 138.436C19.2177 137.528 19.2422 136.228 17.9696 135.37C15.0503 133.403 16.4945 133.901 15.0742 132.294C14.0433 131.127 13.3947 131.764 12.0806 129.501C11.0643 127.75 10.071 128.076 9.00085 126.612L7.93514 124.959C7.30032 124.28 6.99462 124.016 5.88588 123.944C-0.326424 123.538 2.28381 124.82 0.298634 126.834C-0.178709 127.318 0.0423565 127.181 -0.566547 127.412C-3.27948 128.447 -1.51732 129.913 -4.3041 131.091C-6.31226 131.941 -5.61826 133.351 -6.93193 134.258C-7.78391 134.846 -7.98396 134.439 -8.77431 135.302C-10.2059 136.863 -8.63735 136.892 -11.5885 138.278C-13.3227 139.093 -12.6512 140.758 -14.2794 141.563C-15.1216 141.98 -15.5133 141.775 -16.088 142.642C-16.6059 143.424 -16.4 143.805 -17.0833 144.549C-17.8536 145.389 -17.9656 145.098 -18.908 145.612C-19.9429 146.174 -19.6852 146.521 -20.1229 147.478C-20.3997 148.084 -20.9064 148.567 -21.6381 148.857C-24.1485 149.848 -22.7938 150.575 -24.3432 151.945C-25.0309 152.553 -25.6755 152.45 -26.3259 153.029C-27.06 153.682 -26.8448 154.242 -27.3105 154.948C-28.361 156.541 -29.6717 155.268 -30.4802 157.57C-30.8059 158.497 -30.1823 161.473 -29.7025 162.231C-29.3025 162.863 -28.7924 163.212 -28.1942 163.616C-27.5853 164.028 -27.1383 164.438 -26.6957 165.011C-24.152 168.302 -25.2226 166.462 -23.7172 168.003C-23.1836 168.549 -22.919 169.044 -22.4544 169.638C-21.8768 170.377 -21.6127 170.41 -20.8844 170.961C-19.5796 171.948 -19.2939 173.166 -18.0526 174.102C-17.3347 174.644 -17.0716 174.706 -16.4675 175.409C-15.9936 175.958 -15.7016 176.532 -15.2189 177.058C-14.1581 178.216 -13.9522 177.503 -12.214 180.023C-11.3239 181.312 -10.2112 181.552 -9.23844 182.835C-6.92411 185.885 -7.3413 184.608 -6.34847 185.733C-4.90421 187.37 -5.66277 187.387 -3.61107 188.788L-2.76545 188.189C-2.59916 188.052 -2.16584 187.625 -2.04014 187.467C-0.608603 185.662 -2.19078 178.281 -0.754347 172.886C-0.430086 171.669 0.076107 171.585 0.66007 170.675C1.67834 169.089 2.26619 166.382 2.74549 165.494C3.22039 164.615 4.06162 164.432 4.67688 163.81C5.45208 163.027 5.39436 162.241 6.01206 161.518C6.7897 160.607 7.36781 160.727 8.16746 160.063C9.35201 159.078 9.28598 158.558 9.77555 158.049C10.5625 157.229 13.2999 157.133 15.5467 155.164C18.5003 152.576 27.2074 153.353 31.3293 153.353H31.3288Z" fill="#1F319D"/>
<path fill-rule="evenodd" clip-rule="evenodd" d="M147.514 195.442C147.169 197.339 146.878 197.447 147.643 198.624C149.425 201.367 152.394 200.513 153.703 200.474C156.394 200.392 159.242 200.48 161.951 200.48C172.941 200.48 183.931 200.48 194.92 200.48C206.016 200.48 216.576 200.297 227.711 200.297C229.738 200.297 251.51 200.449 252.403 200.261C253.153 200.103 254.122 198.846 254.336 198.03C254.62 196.948 254.23 195.256 254.23 194.086C254.23 191.871 254.895 190.957 253.868 189.158C252.897 187.456 252.424 187.692 249.93 187.693H184.707C182.734 187.694 181.462 187.509 179.511 187.511H150.842C150.43 187.511 149.539 187.905 149.236 188.066C145.62 189.983 148.157 191.902 147.514 195.442L147.514 195.442Z" fill="#1F319D"/>
<path fill-rule="evenodd" clip-rule="evenodd" d="M79.5282 244.135C79.5282 243.164 79.5781 241.76 79.7493 240.89C79.9576 239.833 80.7607 239.509 81.2884 239.17C81.9648 238.736 82.4959 238.188 82.9312 237.557C83.5533 236.656 83.549 236.44 85.0783 236.458C86.5627 236.476 87.6103 235.835 88.9616 237.258C90.3995 238.772 90.3775 237.956 91.3341 239.041C92.2546 240.084 92.4531 240.367 92.4316 241.941C92.4096 243.522 92.7574 243.685 92.324 244.936C92.0306 245.784 91.8413 246.762 91.565 247.455C91.182 248.416 90.5418 248.401 89.5832 248.722C89.0071 248.916 87.7115 249.546 87.2092 249.602C87.2043 249.603 84.0801 249.401 84.0458 249.393C83.5543 249.288 82.5067 248.472 82.0577 248.132C81.1065 247.412 79.5282 245.379 79.5282 244.135ZM46.7378 215.457C46.7378 217.058 47.9996 217.967 48.8878 218.562C49.885 219.23 49.4096 220.567 51.7289 222.424C52.08 222.706 52.3026 222.796 52.5784 223.202L54.7475 226.106C55.0942 226.527 55.0532 226.601 55.4738 227.009C57.8341 229.297 57.3445 229.564 59.5028 231.487C60.883 232.716 60.8566 233.389 61.6577 234.405C62.2275 235.126 62.8232 235.384 63.4541 236.044C65.0206 237.682 63.1983 237.145 66.4502 239.748C67.1662 240.322 67.1858 240.989 67.6621 241.801C69.1773 244.381 69.0976 242.593 70.7375 245.425C72.3118 248.142 72.7046 247.775 73.8241 249.219C74.8785 250.579 75.5187 252.184 76.7786 252.965C79.0924 254.399 79.7923 255.476 80.4937 255.936C82.0318 256.946 87.1779 257.167 89.1029 256.818C92.4932 256.204 91.878 255.493 93.3971 254.438C94.1097 253.943 94.8413 253.805 95.5065 253.301C97.1767 252.035 96.8994 250.515 98.0331 249.118C99.1628 247.727 99.7747 246.408 99.7747 244.135C99.7747 238.458 100.01 240.361 97.6325 236.273C96.425 234.197 95.0198 232.382 92.908 231.225C92.2702 230.876 91.1884 230.536 90.7389 230.148C90.1652 229.653 90.0615 228.933 89.3142 228.313C88.5977 227.719 87.8739 227.611 87.2077 227.172C86.4634 226.682 86.1734 225.967 85.652 225.287C84.5413 223.84 83.9666 224.731 82.1394 222.292C81.5276 221.475 81.215 221.36 80.344 220.835C78.6029 219.784 78.2282 218.916 76.8656 217.805L73.692 215.195C71.7171 212.919 70.2146 211.951 69.9002 211.571C67.3858 208.532 67.3692 209.724 66.2311 208.735C65.539 208.134 65.586 206.943 64.0894 205.986C63.7421 205.764 63.3651 205.662 63.0159 205.436C62.3233 204.988 62.159 204.188 61.643 203.548C60.0833 201.61 57.7739 202.294 56.7111 204.254C56.4563 204.724 56.4734 204.943 56.0783 205.252C55.8528 205.428 55.7613 205.431 55.4948 205.571L54.12 206.544C53.4524 207.271 53.3692 207.879 52.865 208.553C52.4449 209.115 51.6032 209.379 50.9909 209.93C50.1046 210.727 50.2318 210.832 49.6674 211.868C49.2116 212.705 46.7363 213.683 46.7363 215.457L46.7378 215.457Z" fill="#1F319D"/>
<path fill-rule="evenodd" clip-rule="evenodd" d="M130.101 140.888C128.962 139.732 129.355 139.359 127.331 137.684C126.971 137.385 127.138 137.494 126.707 137.224C125.184 136.269 125.908 135.507 123.319 133.736C121.643 132.591 122.73 132.813 121.148 131.2C119.678 129.701 119.66 130.532 118.731 129.098C116.92 126.302 116.157 127.074 115.237 125.536C113.748 123.044 112.663 123.344 111.811 122.088C110.955 120.827 110.82 120.552 109.555 119.638C107.146 117.895 108.603 117.932 106.075 116.062C105.637 115.738 105.187 115.549 104.866 115.102C103.984 113.873 104.367 113.847 102.671 112.592C100.904 111.284 101.808 112.023 100.497 110.241C99.4979 108.884 96.7277 107.26 94.4002 107.14C93.5365 107.73 91.5332 110.682 91.5332 112.072C91.5332 112.574 92.7667 114.504 93.1217 115.028L93.4059 115.474C94.3029 117.037 93.8495 115.764 95.2541 117.23C95.6796 117.673 95.996 117.968 96.4215 118.414C96.9458 118.963 96.9341 119.294 97.321 119.689C97.7592 120.136 98.0365 120.007 98.5701 120.608L100.565 123.141C100.707 123.34 103.443 125.331 103.98 126.263C104.567 127.283 105.872 127.711 107.252 129.476C107.819 130.201 107.418 130.185 108.223 130.678L108.965 131.199C109.184 131.41 109.282 131.535 109.496 131.754C110.167 132.445 110.622 132.746 111.03 133.478C111.604 134.505 111.394 134.013 112.157 134.522C113.207 135.222 114.426 137.05 114.795 137.495C115.168 137.943 115.521 137.925 116.041 138.417C116.438 138.792 116.717 139.121 117.112 139.517C118.136 140.546 117.631 140.001 118.14 140.844C118.641 141.674 118.679 141.247 119.353 141.8L121.362 144.136C121.636 144.599 121.293 144.331 121.769 144.817L124.866 147.139C125.567 147.639 125.459 147.512 125.937 148.24C127.569 147.359 126.748 147.528 129.319 146.573C131.923 145.605 132.462 143.282 130.102 140.889L130.101 140.888Z" fill="#1F319D"/>
<path fill-rule="evenodd" clip-rule="evenodd" d="M-3.79111 114.264C-4.24205 114.891 -6.34459 117 -7.24157 117.322C-7.53159 117.426 -7.94977 117.483 -8.18453 117.64C-9.00814 118.192 -8.57677 120.08 -11.2364 121.104C-12.262 121.499 -12.0003 121.899 -12.3133 122.563C-13.3815 124.832 -15.172 124.191 -15.7139 125.673C-16.0382 126.558 -15.4953 125.922 -16.7341 127.19C-17.4546 127.927 -17.1914 127.837 -18.2684 128.183C-19.3991 128.546 -19.0015 128.652 -19.3561 129.631C-19.6065 130.322 -20.1073 130.62 -20.5837 131.12C-21.5775 132.162 -21.3251 131.467 -22.1835 132.046C-22.7948 132.459 -22.7171 133.949 -24.398 134.903C-25.2006 135.359 -25.7508 135.013 -26.1949 135.811C-26.5025 136.363 -26.393 137.206 -27.6088 138.205C-27.6348 138.227 -27.9806 138.487 -28.0246 138.513C-28.3327 138.691 -28.0319 138.558 -28.3953 138.683C-29.3172 138.999 -29.504 138.692 -29.8415 139.765C-30.3051 141.239 -30.9405 141.957 -32.4483 142.405C-33.4499 142.703 -33.1208 142.988 -33.4861 143.904C-34.2662 145.857 -36.0719 146.101 -36.3321 146.301C-36.7718 146.637 -36.851 147.504 -37.1259 148.049C-38.8689 151.502 -39.8554 150.321 -36.8901 154.4C-34.6589 157.471 -34.7264 155.43 -32.4864 154.423C-31.9304 154.172 -31.318 153.991 -30.7199 153.666C-29.0433 152.756 -29.5534 151.649 -28.5753 150.738C-27.7233 149.944 -26.6493 150.394 -25.7533 148.318C-24.823 146.162 -24.2802 147.141 -23.0051 146.004C-21.8602 144.985 -22.5879 143.905 -20.6605 143.098C-18.7154 142.282 -18.9746 141.261 -18.3413 140.347C-17.5788 139.246 -16.2783 139.441 -15.4381 138.01C-14.9979 137.259 -15.216 137.045 -14.5108 136.398C-13.9747 135.905 -13.5346 135.913 -12.8841 135.499C-11.4007 134.554 -11.9729 133.295 -10.5947 132.535C-9.96966 132.191 -9.48841 132.168 -8.96949 131.635C-8.55182 131.206 -8.342 130.622 -8.03632 130.029C-7.18043 128.371 -6.29667 129.064 -5.19036 127.633C-4.68368 126.978 -4.69885 126.556 -4.334 125.95C-3.92366 125.268 -3.50452 125.353 -2.76992 124.987C-2.12286 124.664 -1.77755 124.26 -1.38091 123.663C-0.929489 122.984 -0.964233 122.543 -0.521126 121.983C0.326939 120.91 2.85305 119.449 0.544106 117.517C0.0853462 117.133 -0.456066 116.891 -0.998459 116.533C-2.58161 115.487 -2.24757 115.318 -3.79111 114.265V114.264Z" fill="#1F319D"/>
<path fill-rule="evenodd" clip-rule="evenodd" d="M113.357 138.959C112.823 138.511 112.417 138.774 111.59 138.204C111.184 137.924 110.641 137.36 110.446 136.813C110.155 136 110.397 135.568 109.508 135.213C108.839 134.945 107.422 134.898 106.807 132.852C106.05 130.335 104.306 132.538 103.184 129.057C102.677 127.487 102.443 128.914 100.352 126.832C99.4024 125.886 99.9859 126.093 99.5095 125.13C99.0708 124.244 97.9068 124.792 96.598 122.985C96.0683 122.253 96.4254 121.848 95.813 121.228C95.1772 120.583 94.0509 120.997 92.9417 119.223C92.5264 118.559 92.7367 117.976 92.0745 117.55C91.762 117.348 90.7437 117.061 90.2776 116.824C88.8319 116.093 87.7906 115.233 86.9983 115.649C86.5195 115.899 85.8617 116.358 85.4646 116.662C84.6532 117.283 83.4716 118.195 82.9336 119.014C83.3312 119.78 83.4647 120.002 83.9636 120.704C84.8537 121.957 84.7437 123.556 85.762 124.349C86.3699 124.823 86.8717 124.779 87.507 125.129C88.9028 125.898 88.2959 127.158 89.7074 128.184C90.4077 128.693 90.8215 128.461 91.5052 129.091C92.5827 130.085 91.9928 131.449 93.798 132.051C94.6901 132.348 94.7865 132.284 95.3504 133.025C96.489 134.523 95.1132 134.672 97.8315 135.793C99.4816 136.474 98.8243 137.75 100.083 138.795C100.734 139.337 101.201 139.148 101.886 139.697C102.725 140.369 102.458 140.392 102.823 141.299C103.602 143.239 104.851 142.335 105.824 143.719C106.696 144.959 105.869 145.626 108.27 146.523C110.101 147.207 109.281 148.391 110.57 149.475C112.053 150.723 112.332 149.316 113.296 151.993C113.899 153.668 115.246 153.323 116.314 154.214L117.03 154.945C117.141 155.115 117.795 156.663 119.105 156.586C120.277 156.517 121.274 154.628 121.735 154.002C123.292 151.89 125.399 151.411 122.72 149.693C121.075 148.637 121.033 147.347 120.721 146.616C120.35 145.744 120.009 145.977 119.147 145.664C117.37 145.02 117.397 143.193 117.024 142.714C116.511 142.051 116.053 142.403 115.282 141.933C113.501 140.848 114.124 139.603 113.359 138.96L113.357 138.959Z" fill="#1F319D"/>
<path fill-rule="evenodd" clip-rule="evenodd" d="M13.7689 161.938C11.9647 165.413 11.3117 163.41 9.18813 166.219C8.46283 167.178 6.89436 168.529 6.69531 168.975C6.57597 169.243 6.23949 171.871 6.24682 172.182C6.26492 172.917 6.47424 172.827 6.90121 173.322C7.84415 174.417 7.98404 174.823 9.46742 175.821C9.81809 176.057 10.1932 176.335 10.5507 176.543C10.9601 176.781 11.1601 176.845 11.5724 177.146C13.7552 178.739 12.6831 178.923 15.0028 180.773C15.6015 181.251 16.1458 181.922 16.6789 182.535C18.1417 184.215 18.5853 184.453 19.5205 186.762C20.0061 187.962 21.1897 188.181 22.6926 190.469C23.8146 192.176 24.4929 192.731 26.3524 191.023C28.1879 189.336 29.6674 190.005 31.1469 187.143C31.5724 186.319 31.8663 186.227 32.3696 185.467C34.77 181.842 33.1873 183.866 34.1161 181.402C34.5118 180.352 34.8336 180.784 35.0913 179.656C33.7209 178.986 32.8949 179.524 31.9798 177.896C31.6169 177.25 31.5743 176.589 31.2041 176.13C30.7292 175.54 27.7096 173.842 27.0958 173.012C26.3691 172.028 25.8751 171.094 25.1346 170.079C23.439 167.755 21.264 168.113 19.4574 166.002C16.228 162.229 18.6787 164.468 15.3197 162.732C14.7495 162.437 14.3323 162.271 13.7679 161.939L13.7689 161.938Z" fill="#1F319D"/>
</g>
</g>
<defs>
<clipPath id="clip0_19_64">
<rect width="508" height="353" fill="white" transform="translate(-212)"/>
</clipPath>
</defs>
</svg>
