<svg width="253" height="337" viewBox="0 0 253 337" fill="none" xmlns="http://www.w3.org/2000/svg">
<g opacity="0.05">
<g clip-path="url(#clip0_14_196)">
<path fill-rule="evenodd" clip-rule="evenodd" d="M-83.0183 238.032C-84.221 236.168 -85.9968 236.234 -87.1114 234.715L-88.6109 232.408C-89.2565 231.534 -89.7828 231.495 -90.1838 230.358C-90.4489 229.608 -90.6436 228.003 -91.0901 227.447C-91.6031 226.807 -92.3862 226.27 -92.8728 225.611C-93.4352 224.849 -93.558 223.992 -93.9703 223.077C-94.5151 221.866 -94.7885 221.922 -95.6292 221.115C-96.2763 220.492 -97.5039 217.359 -98.1749 216.226C-98.8097 215.152 -99.3013 215.391 -99.8799 214.122C-100.324 213.15 -100.475 212.524 -101.213 211.828C-102.76 210.37 -104.781 210.783 -107.533 210.783C-124.556 210.783 -141.578 210.783 -158.6 210.783C-164.886 210.783 -167.843 209.602 -170.068 213.888C-169.663 214.503 -169.622 214.253 -169.268 215.081C-168.617 216.603 -168.425 218.216 -168.027 219.845C-167.139 223.481 -166.124 222.873 -165.327 224.947C-164.714 226.544 -163.945 229.603 -162.187 229.783C-157.22 230.292 -152.321 229.413 -147.311 229.415C-144.663 229.415 -142.237 229.511 -139.886 229.129C-135.507 228.419 -134.839 228.931 -132.694 228.607C-128.317 227.945 -125.816 227.911 -121.738 228.552C-120.261 228.784 -120.616 228.545 -119.669 229.548L-117.406 231.807C-116.051 233.237 -115.335 235.536 -114.123 236.682C-113.346 237.417 -113.149 237.277 -112.509 238.324C-111.86 239.388 -111.631 240.406 -110.719 241.248C-108.983 242.851 -109.93 241.506 -108.729 243.969C-107.843 245.786 -106.973 246.377 -106.092 247.674C-105.82 248.075 -105.182 249.343 -105.221 250.022C-105.308 251.531 -105.539 253.927 -106.428 255.202C-108.714 258.482 -108.248 262.333 -109.683 264.669C-110.077 265.309 -110.544 265.563 -111 266.432C-111.728 267.824 -111.947 269.862 -112.331 271.468C-113.551 276.569 -114.425 274.144 -115.7 280.82C-116.738 286.254 -119.4 286.53 -118.601 290.198C-117.388 295.771 -114.179 293.893 -112.405 296.67C-111.207 298.546 -110.206 298.062 -108.674 299.26C-108.034 299.76 -107.824 300.394 -107.127 300.971C-106.68 301.34 -105.713 301.786 -105.192 302.104C-103.253 303.288 -103.177 303.839 -101.729 304.966C-100.184 306.169 -99.493 305.56 -97.9005 307.456C-96.785 308.784 -95.4444 308.904 -93.8539 309.725C-91.4642 310.957 -91.8154 310.185 -89.4595 309.397C-86.5265 308.416 -87.3384 308.277 -85.8428 306.691C-85.3102 306.127 -84.5022 305.931 -83.7598 305.527C-82.9675 305.096 -82.6358 304.784 -82.0436 304.17C-81.3496 303.452 -81.1173 303.212 -80.2985 302.662C-79.6852 302.251 -79.1487 301.832 -78.4435 301.448C-77.9045 301.154 -77.8898 301.168 -77.4487 300.819C-76.539 300.098 -76.1022 299.144 -74.9862 298.579C-73.7674 297.962 -73.0093 297.517 -72.2365 296.451C-71.5122 295.452 -70.5546 295.229 -69.439 294.554C-68.3527 293.898 -68.0559 292.843 -67.0435 292.246C-66.6762 292.03 -66.4272 291.88 -66.0184 291.648C-62.3786 289.578 -62.6134 288.445 -60.7979 287.471C-60.1372 287.116 -59.3879 286.906 -58.7932 286.409C-57.2751 285.138 -57.9006 284.293 -54.3817 285.378C-52.2879 286.024 -52.8797 286.938 -47.4818 287.842C-42.8105 288.624 -43.2218 290.039 -38.1154 291.08C-36.5283 291.403 -34.6185 291.588 -33.318 292.582C-32.2459 293.401 -31.4096 295.157 -31.0208 296.633C-30.5356 298.479 -29.6513 299.406 -29.0718 301.04C-27.9797 304.119 -27.9454 308.154 -26.5462 311.069C-26.1725 311.847 -25.7534 312.365 -25.4095 313.198C-25.0696 314.02 -24.9904 314.703 -24.827 315.709C-24.516 317.623 -24.2891 319.487 -23.8944 321.152C-23.7203 321.888 -23.4053 322.905 -23.1407 323.488C-22.8096 324.218 -22.3406 324.638 -22.0051 325.437C-21.2734 327.178 -21.2005 328.669 -20.8254 330.627C-20.4464 332.604 -20.0326 333.898 -18.4504 334.599C-17.6963 334.933 -16.8257 335.132 -16.0989 335.49L-13.8668 336.32C-12.1829 336.654 -10.5821 337.003 -8.44531 337.003H8.57713C9.87025 337.003 12.5842 336.374 13.286 335.776C15.031 334.287 17.3131 330.948 17.9347 328.642C18.3553 327.082 18.6727 325.675 18.9701 323.852C19.9869 317.609 20.9841 319.359 21.7891 314.853C22.0924 313.155 22.2846 311.556 22.6587 309.895C23.3894 306.658 24.5392 307.294 25.7336 301.156C26.7988 295.684 26.1884 297.205 28.425 294.95C29.8438 293.518 29.9988 292.644 31.4367 292.174C33.7491 291.419 36.3515 291.207 38.6198 290.546C39.5946 290.262 39.8846 290.195 40.7146 289.759C41.434 289.382 41.8062 289.02 42.5951 288.754C44.6096 288.076 47.3773 287.682 49.4559 286.981C49.8511 286.847 50.1802 286.747 50.5084 286.592C50.6571 286.521 51.4015 286.041 51.4015 286.041C51.8304 286.041 54.6949 286.494 54.9644 286.611C55.3547 286.779 55.7171 287.115 56.1808 287.38C57.2822 288.007 58.5993 288.238 59.2986 289.316C60.5204 291.201 62.0434 290.901 63.3502 292.309C63.7674 292.759 63.6725 292.99 64.1606 293.493C64.8512 294.205 65.7667 294.464 66.6011 295.023C67.4702 295.605 67.9324 296.237 68.7017 296.9C70.8708 298.769 72.4045 298.579 73.4492 300.28C74.0234 301.215 74.6059 301.533 75.651 302.054C76.7608 302.606 77.107 302.897 77.8103 303.871C78.6261 305 80.3447 305.486 81.4589 306.362L82.0252 306.881C83.8955 308.911 85.147 309.121 87.5269 310.223C89.2842 311.036 89.6309 312.624 91.4923 310.653C92.6162 309.462 94.464 309.212 95.6221 308.105C96.8434 306.937 96.1352 306.754 97.9834 305.945C102.017 304.179 101.067 303.581 103.146 302.257C104.529 301.376 105.398 301.348 106.535 300.049C107.481 298.969 108.707 298.732 109.82 297.918L110.959 296.888C111.145 296.694 111.117 296.717 111.314 296.519C114.597 293.224 117.094 295.028 115.86 289.195C115.617 288.044 114.72 287.362 114.312 286.389C113.44 284.309 113.329 281.382 112.388 279.401C111.889 278.351 111.162 277.589 110.71 276.545C109.795 274.431 109.819 271.618 108.864 269.477C108.634 268.96 108.358 268.353 108.049 267.932C107.09 266.622 106.59 264.705 106.247 263.011C105.231 257.99 104.406 259.079 103.606 256.753C102.274 252.878 102.844 254.071 102.829 251.155C102.814 248.091 103.939 248.455 105.088 246.882C106.65 244.743 106.713 244 108.879 241.796C109.678 240.984 109.979 239.848 110.531 238.914C111.119 237.92 112.073 237.827 112.726 236.768C114.141 234.471 113.372 234.899 115.42 232.756C116.177 231.963 116.606 230.99 117.383 230.191C117.835 229.727 117.967 229.439 118.588 229.227C119.128 229.043 119.66 228.967 120.279 228.759C120.669 228.628 120.724 228.615 121.068 228.468C121.55 228.263 121.348 228.138 121.82 228.138C124.709 228.138 128.049 228.277 130.649 228.636C132.803 228.934 133.93 228.47 138.069 229.109C140.282 229.45 143.312 229.153 145.836 229.228C147.077 229.265 148.073 229.604 149.408 229.606C151.861 229.609 154.615 229.335 157.016 229.705C162.473 230.545 161.345 228.661 163.9 225.187C165.366 223.194 165.385 222.081 166.007 219.298C167.074 214.525 169.196 214.717 167.557 212.384C166.748 211.233 165.007 211.121 163.561 210.986C161.058 210.753 145.041 210.969 141.71 210.969C137.574 210.969 105.609 211.257 101.901 210.808C99.3832 210.503 96.2961 212.363 95.1952 215.061C94.9716 215.608 94.8949 215.818 94.6861 216.368C93.682 219.009 93.4712 217.995 92.4617 219.581C91.6855 220.8 90.904 223.745 90.0271 224.588C87.9064 226.628 88.3945 226.128 87.3107 229.126C86.8505 230.4 86.3233 230.389 85.7276 231.348C85.1436 232.288 85.2013 232.852 84.1395 233.382C83.066 233.918 82.662 233.758 81.9289 234.782C81.2373 235.748 81.5195 236.226 80.3981 236.874C79.3866 237.459 78.8653 237.41 78.2202 238.49C76.9251 240.658 75.7479 240.771 74.6445 242.334C73.3617 244.153 72.4647 243.843 70.86 245.965C69.6275 247.594 67.8727 247.694 66.8109 249.144C66.1326 250.071 65.9125 250.199 64.7636 250.71C61.8644 251.999 63.4549 252.508 60.6001 253.955C54.5345 257.028 58.3621 256.507 53.706 258.07C52.5606 258.454 51.5956 259.053 50.7921 259.848C48.9805 261.64 46.1605 261.59 44.1293 263.102C40.9034 265.503 39.9506 264.894 36.3246 266.105C35.7005 266.314 35.4506 266.368 34.9439 266.707C34.5272 266.986 34.3375 267.272 33.933 267.503C31.5062 268.893 27.8689 268.799 25.3017 269.664C23.2789 270.346 22.3061 271.265 19.8597 271.606C17.9142 271.876 15.4556 272.277 13.4151 272.342L3.15321 273.023C1.50061 273.254 -9.37653 273.007 -11.1812 272.758L-17.9413 272.16C-18.986 272.095 -20.194 271.926 -21.1819 271.811C-22.3357 271.676 -23.2938 271.538 -24.4739 271.33C-25.8756 271.084 -25.8884 270.717 -26.9555 270.207C-30.2593 268.629 -35.4019 269.382 -38.5462 267.045C-40.1607 265.846 -41.9776 265.739 -43.9486 265.063C-47.3991 263.879 -46.8254 263.264 -48.5792 262.477C-49.8254 261.919 -53.2925 261.239 -54.1098 260.626C-54.9153 260.022 -55.0473 259.358 -56.0984 258.818C-57.7563 257.966 -59.4764 257.528 -60.8102 256.132C-62.4427 254.424 -64.0895 254.613 -65.3483 253.451C-66.1147 252.743 -66.0594 252.287 -67.1403 251.624C-67.671 251.299 -67.9302 251.266 -68.4388 250.939C-70.2729 249.764 -71.635 248.004 -73.4847 246.767C-75.9232 245.137 -75.1148 244.528 -77.4878 243.359C-79.1375 242.546 -78.3862 242.865 -79.2235 241.475C-79.562 240.914 -80.4233 240.026 -81.0688 239.703C-81.6288 239.422 -81.823 239.479 -82.2602 239.091C-82.5733 238.813 -82.762 238.43 -83.0164 238.035L-83.0183 238.032Z" fill="#1F319D"/>
<path fill-rule="evenodd" clip-rule="evenodd" d="M-92.4825 9.49137C-93.0425 10.3435 -93.1374 10.4148 -94.0187 11.0306C-95.2492 11.8902 -96.7702 12.0902 -97.6799 13.3263C-99.0665 15.211 -100.803 15.0954 -102.83 17.0265C-104.422 18.5423 -106.777 19.1586 -107.966 20.7412C-109.075 22.2186 -111.023 22.3223 -112.239 23.691C-113.981 25.6501 -113.099 24.4654 -114.651 25.7992C-116.642 27.51 -116.517 27.3908 -116.496 29.3987C-116.471 31.7547 -115.588 34.6397 -114.906 36.7339C-114.336 38.4846 -113.736 39.2145 -112.965 40.7827C-111.619 43.5186 -111.595 47.1286 -109.97 49.6022C-108.275 52.1811 -108.457 55.7203 -107.06 58.5096C-106.126 60.3764 -105.776 60.4721 -105.241 62.682C-104.053 67.5849 -103.889 65.3387 -104.126 69.9569C-104.183 71.0887 -104.402 71.358 -104.88 72.1104C-105.639 73.3056 -106.499 74.1383 -107.332 75.2731C-107.788 75.8939 -108.115 76.3377 -108.429 77.0776C-109.196 78.8876 -109.625 78.6458 -110.745 79.8305C-111.395 80.5186 -111.629 81.092 -112.073 81.9481C-112.913 83.5716 -113.817 83.6514 -114.696 85.1189C-116.271 87.7506 -116.282 87.7211 -118.42 89.9071C-119.623 91.1367 -119.91 91.9095 -121.672 92.2551C-124.449 92.7986 -127.604 92.6016 -130.47 92.6016C-132.087 92.6016 -133.293 92.1838 -134.879 91.9674C-136.325 91.7694 -137.503 92.0536 -139.071 92.0536C-143.284 92.0536 -146.87 91.3755 -151.083 91.3301C-152.169 91.3187 -152.822 91.1347 -154.122 91.1397C-163.483 91.1751 -163.095 89.2469 -165.09 95.6681C-165.555 97.165 -166.584 98.4858 -167.2 99.9104C-167.775 101.242 -168.836 105.862 -169.025 107.732L-169.532 110.32C-167.972 110.355 -166.8 111.05 -164.873 111.05H-106.818C-106.138 111.05 -105.252 110.698 -104.692 110.478C-102.555 109.636 -101.413 109.134 -100.569 106.461C-100.006 104.673 -99.4172 104.4 -98.5358 103.055C-97.8418 101.996 -97.365 100.746 -96.8412 99.4851C-96.2293 98.0136 -95.2326 98.1203 -94.3938 96.4998C-93.6675 95.0957 -93.6538 94.2151 -92.5304 93.1022C-91.6594 92.2391 -90.9052 90.9776 -90.331 89.8642C-89.9319 89.0908 -89.8664 88.843 -89.5803 87.8897C-89.3729 87.1976 -89.0863 86.874 -88.6437 86.2871C-87.5995 84.9039 -87.9057 83.8893 -86.0975 83.4026C-83.7319 82.7659 -84.5696 82.3221 -83.1983 81.0611C-82.0396 79.996 -81.1241 80.4164 -80.0447 78.7959C-77.9617 75.669 -77.4291 76.8503 -76.0768 74.8039C-74.7553 72.804 -74.118 73.4427 -71.834 71.0917C-70.4724 69.6906 -68.61 68.9387 -67.1755 67.6218C-65.0456 65.6672 -64.063 65.6877 -62.4794 64.3718C-61.7839 63.7934 -61.935 63.5351 -61.0972 63.0415L-57.5426 61.3677C-55.3393 60.2667 -56.8677 60.1984 -52.5251 58.4457C-49.4752 57.2147 -48.8555 55.828 -45.3977 54.9345C-40.7412 53.7308 -41.9991 53.4062 -39.809 52.4115C-36.8692 51.0772 -34.101 51.8959 -29.7687 49.313C-27.7517 48.1104 -23.8146 48.2121 -21.0435 47.7957C-19.611 47.5808 -17.9882 47.3266 -16.3645 47.0857C-11.95 46.43 -6.11435 46.0222 -1.63976 46.0222C5.89697 46.0222 15.3039 47.2976 22.8588 48.4474C25.4225 48.8374 26.9367 50.2634 31.1653 51.1215C37.4524 52.3975 35.8551 53.1404 39.1896 54.2663C40.8222 54.8178 43.1463 55.0915 44.6346 56.0225C45.196 56.3735 45.1315 56.4782 45.5692 56.896C47.235 58.4851 50.2424 58.4408 51.804 59.8553C52.6946 60.6626 52.7435 60.9368 53.9026 61.5516C55.5631 62.4317 57.335 62.8062 58.6991 64.1514C59.9868 65.4214 61.9104 65.766 63.0871 66.9846C63.6891 67.6084 64.1024 68.3244 64.8884 68.8011C67.9485 70.6574 67.504 71.3605 68.9546 72.1453C70.8522 73.173 71.5413 74.1313 73.1054 75.4028L79.0805 81.3672C79.9491 82.1411 81.0569 82.4537 82.0321 83.1074C82.4645 83.3971 82.5994 83.6968 83.0313 83.9157C83.7654 84.2877 84.8032 84.4382 85.2067 85.3512C85.5662 86.1655 85.4077 87.6862 85.6625 88.7219C85.8919 89.6533 86.7219 89.9948 87.2672 90.7478C87.8835 91.5984 88.1226 92.9601 88.8709 93.8531C90.3073 95.5664 90.2746 94.5727 91.6528 97.4103C92.3933 98.9356 92.9948 99.5828 93.8683 100.814C94.6489 101.915 94.9834 103.322 95.5913 104.538C96.1557 105.667 97.7585 107.667 98.6017 108.958C98.8795 109.383 99.1514 109.76 99.413 110.141C100.455 111.656 101.673 111.035 103.537 111.047L154.606 111.049C159.397 111.049 161.897 111.238 166.382 110.604C166.581 110.576 167.507 110.575 167.507 110.136C167.507 108.282 166.847 106.348 166.396 104.51C165.786 102.03 165.344 99.133 164.34 96.7427C164.017 95.9738 163.568 95.4642 163.146 94.6719C162.49 93.4423 161.768 91.396 160.295 91.016C160.172 90.9846 143.67 91.565 141.836 91.8193C140.98 91.9385 139.573 91.9808 138.829 92.0422L126.294 92.5986C123.032 92.5872 121.187 93.2189 118.236 91.6827L117.073 90.6764C116.442 89.9151 115.8 88.873 115.136 88.2671C113.445 86.7224 113.577 86.5953 112.445 84.4352C111.66 82.9399 111.2 83.804 109.597 80.7629C108.703 79.0676 107.656 78.6059 106.73 77.1095C103.428 71.7753 102.553 72.961 103.187 68.1294C103.464 66.0247 104.495 65.3327 105.208 63.6129C106.113 61.428 106.348 57.6754 107.372 55.9561C107.822 55.2002 108.295 54.8258 108.664 53.9861C109.27 52.6104 109.668 50.4644 110.061 48.8339C110.712 46.1319 111.344 46.1648 112.07 44.3064C112.698 42.6994 112.978 40.9183 113.469 39.1562C114.237 36.3938 117.001 32.8596 116.632 31.0432C116.029 28.0734 115.826 27.5783 113.406 26.1024C111.402 24.8802 111.431 24.8194 109.772 23.2293C108.646 22.1493 107.06 22.1244 105.732 20.7731C104.137 19.1506 103.394 19.2404 101.978 18.0242C100.622 16.859 100.21 16.0138 98.407 15.0894C96.4756 14.0991 96.9539 14.2098 95.6989 12.9179C94.7624 11.9536 93.8776 11.595 92.5458 11.2001C89.2181 10.2134 90.8301 10.1062 87.6555 11.7461C84.8815 13.1792 84.6629 14.1973 83.2333 14.9104C80.2827 16.3818 81.5229 16.1544 80.1154 17.577C79.7427 17.9539 79.4449 18.0138 79.0018 18.2686C76.19 19.8856 75.5107 21.3789 72.4172 23.0633C71.534 23.5439 71.155 24.238 70.4394 24.8832C69.7552 25.5005 68.8201 25.7493 68.0224 26.2549C66.9376 26.9425 66.9361 27.3185 66.1443 28.1761C65.5569 28.8123 65.7198 28.6184 64.972 28.9904C62.9423 30.0011 61.6418 32.004 59.6454 33.0586C58.8869 33.4595 57.8324 33.8903 57.1354 34.336C54.6348 35.9346 55.8282 36.8351 49.9651 34.1501C47.7055 33.1154 44.4619 33.0995 42.0552 31.9846C41.3426 31.6545 40.6427 31.2197 39.934 30.8592C37.0778 29.4057 32.7592 29.5792 30.3823 27.2621C28.9165 25.8331 28.671 23.2428 27.9271 21.1805C27.1994 19.1631 26.3161 17.2494 25.8505 15.0774C25.6353 14.0737 25.5086 13.3447 25.3135 12.3375C24.8948 10.179 24.5476 8.92395 23.5904 7.33535C21.8875 4.50868 22.2719 -0.441605 20.8795 -3.41786C20.1845 -4.90374 19.4489 -6.38514 19.0977 -8.17717C18.4639 -11.4137 18.7451 -13.5742 15.3822 -14.4358C14.448 -14.6752 13.8612 -15.0402 12.9794 -15.2745C9.46335 -16.2089 -1.50426 -16.0997 -5.94951 -15.7248C-7.90974 -15.5592 -10.8609 -16.0673 -12.1779 -15.6859C-13.6946 -15.2471 -15.5487 -14.7335 -16.4809 -13.3095C-16.9861 -12.5376 -17.2835 -12.1816 -17.5158 -11.0761C-18.1956 -7.8436 -17.8997 -8.81989 -19.2633 -6.09943C-20.4498 -3.73199 -20.73 -0.907813 -21.1682 1.82212C-21.4812 3.77322 -22.3528 4.91755 -23.0409 6.67169C-24.6368 10.7414 -23.8777 12.9658 -26.0674 16.9208C-28.2002 20.7741 -26.5804 24.6225 -29.8073 26.6244L-31.1039 27.6775C-32.0151 28.4763 -32.5975 28.7356 -33.9675 28.9594C-35.9463 29.282 -37.7402 29.5294 -39.5141 30.0639C-40.2908 30.2977 -41.174 30.6632 -41.805 31.0162C-42.6027 31.462 -42.9127 31.8544 -43.9222 32.1461C-46.4737 32.8831 -49.3456 33.0676 -51.7558 34.2064C-52.3647 34.4941 -53.1193 35.4295 -53.7816 35.4295C-54.2975 35.4295 -58.822 33.0725 -59.2788 32.8143C-62.6466 30.9085 -61.1011 30.6612 -63.8742 29.2786C-66.6233 27.9079 -64.5477 27.7717 -68.5391 25.8147C-68.99 25.5933 -69.4077 25.3405 -69.7623 25.0523C-70.9894 24.0545 -69.9158 24.4031 -72.9892 22.3144C-74.857 21.0454 -76.313 19.3147 -77.4922 18.6844C-79.8442 17.4279 -79.6294 16.503 -82.1546 15.2175C-83.4262 14.5698 -84.0082 13.6798 -84.9741 12.7947C-85.1257 12.6556 -85.3214 12.522 -85.4906 12.4078C-87.7027 10.9134 -89.6483 9.63697 -92.4844 9.49137H-92.4825Z" fill="#1F319D"/>
<path fill-rule="evenodd" clip-rule="evenodd" d="M-46.2536 233.249C-47.1119 233.249 -49.8801 232.218 -50.3501 231.398L-51.3244 229.284C-51.8438 228.09 -51.7132 228.375 -51.633 227.045C-51.4907 224.674 -51.9704 223.64 -49.3734 221.667C-48.9381 221.336 -47.78 220.098 -46.6121 220.098C-43.2252 220.098 -42.9088 220.075 -41.7413 221.891C-40.6522 223.586 -39.9205 223.061 -39.2118 224.244C-38.9247 224.724 -38.9076 224.849 -38.8988 225.569C-38.8832 226.821 -38.6083 227.802 -38.9198 228.666C-39.2769 229.657 -39.5199 229.931 -40.2105 230.644C-41.0816 231.543 -40.3939 231.427 -41.7697 232.341C-43.5079 233.497 -43.9085 233.25 -46.2541 233.25L-46.2536 233.249ZM-59.1545 227.77C-59.1545 231.723 -57.6619 231.894 -56.4646 234.343C-56.1648 234.957 -55.9085 235.727 -55.5036 236.286C-54.5415 237.615 -53.2347 237.727 -51.9083 238.649C-51.2295 239.121 -50.9522 239.653 -50.2323 240.046C-49.572 240.406 -48.8271 240.486 -47.9712 240.663C-46.5397 240.96 -44.0752 240.939 -42.6598 240.566C-41.0449 240.139 -40.1817 239.203 -38.8303 238.442C-33.4632 235.416 -33.9919 232.744 -32.2219 231.479C-31.7827 231.166 -31.8086 231.235 -31.4178 230.838C-30.9146 230.325 -30.5752 229.826 -30.2426 229.113C-29.0233 226.498 -28.5714 227.659 -27.4666 225.915C-27.0142 225.201 -26.9041 224.548 -26.3999 223.897C-25.8149 223.143 -25.4432 223.226 -24.7888 222.617C-23.9696 221.854 -24.0944 221.733 -23.5559 220.768C-22.6188 219.088 -21.5115 219.061 -20.6605 217.693C-20.0956 216.785 -19.5263 215.846 -18.7018 215.123C-16.8902 213.534 -15.7242 211.152 -13.8198 209.688C-12.6298 208.773 -12.2126 207.422 -11.031 206.503C-8.94461 204.883 -9.30605 203.26 -7.46074 202.288C-6.50851 201.787 -5.8096 201.064 -5.33862 200.068C-4.52039 198.339 -3.36322 198.747 -2.35621 197.08C-1.88963 196.309 -1.92044 195.806 -1.13351 195.221C-0.425812 194.696 -0.0325851 194.818 0.548443 194.014C1.01209 193.372 1.14316 192.638 1.63469 192.015C2.28908 191.186 2.51455 191.338 3.30735 190.798C4.77997 189.795 4.64155 188.349 6.00608 187.521C7.99223 186.315 7.46794 185.673 8.79286 184.335C9.38612 183.736 10.0239 183.508 10.5012 182.971C10.9502 182.466 11.2407 181.733 11.6183 181.187C12.6551 179.689 13.6255 180.068 14.6589 178.259C15.4091 176.947 16.6084 176.338 17.5816 175.211L19.5282 172.629C19.9801 172.08 19.6993 172.36 20.2496 171.903C21.3104 171.021 21.6821 169.369 22.2665 167.931C23.1087 165.859 23.9842 166.197 25.0895 164.781L29.3303 159.971C30.4425 159.073 31.8794 158.521 33.1187 157.805C33.5251 157.571 34.5586 156.938 34.5586 156.35C34.5586 153.005 35.2536 153.48 32.5842 151.422C31.049 150.238 31.6055 150.029 29.502 148.719C28.2808 147.958 27.7785 146.676 27.0331 145.664C25.715 145.657 23.7538 145.447 22.8466 146.604C22.4225 147.144 22.0503 147.602 21.6884 148.162C19.6206 151.366 22.0303 148.76 18.2942 152.557C17.7533 153.107 17.6095 153.518 17.0451 154.022L14.3601 156.583C13.7482 157.192 13.5751 157.189 12.8512 157.603C8.60065 160.03 9.55632 161.038 7.48213 162.723C6.40322 163.6 5.77718 163.838 4.67773 164.979C1.37253 168.406 2.65883 166.782 -1.31739 169.461C-2.60172 170.327 -2.71324 171.23 -3.83568 172.191C-4.35997 172.64 -4.85247 172.797 -5.35183 173.203C-6.35835 174.021 -6.66598 175.226 -7.80162 176.002C-8.55872 176.52 -8.59589 176.315 -9.30213 177.03C-10.4021 178.143 -10.4607 178.723 -11.9529 179.625C-13.4549 180.533 -13.4031 181.376 -14.4864 182.339C-15.6073 183.336 -16.3718 182.969 -17.4067 184.477C-19.0872 186.925 -19.8956 185.97 -21.3501 188.493C-22.0011 189.622 -23.4556 189.815 -24.2474 190.837C-25.6222 192.613 -24.4343 192.196 -26.7501 193.401C-27.3805 193.729 -27.7189 193.973 -28.2055 194.474C-30.2421 196.571 -28.3714 194.997 -30.9478 196.976C-32.4997 198.168 -33.582 199.517 -35.1407 200.739C-35.6474 201.135 -36.0651 201.392 -36.6167 201.791C-37.1586 202.182 -36.8843 201.931 -37.2687 202.405C-39.83 205.56 -39.7576 203.939 -42.0045 206.71C-42.5214 207.348 -42.7464 207.568 -43.5363 207.889C-45.562 208.711 -45.1199 209.189 -46.2604 210.411C-46.7529 210.938 -47.2689 211.02 -47.869 211.325C-49.1729 211.986 -49.5921 212.705 -50.5937 213.662C-52.974 215.934 -54.1429 215.201 -56.0518 218.693L-58.0839 221.918C-59.0196 223.75 -59.1531 225.56 -59.1531 227.769L-59.1545 227.77Z" fill="#1F319D"/>
<path fill-rule="evenodd" clip-rule="evenodd" d="M108.917 145.573C108.917 147.021 109.386 148.709 109.949 149.635C110.972 151.315 111.462 150.677 113.396 150.686L142.245 150.505C155.146 150.505 168.047 150.505 180.949 150.505C185.497 150.505 245.551 150.771 248.551 150.374C251.125 150.034 251.675 150.502 252.161 149.122C253.574 145.108 252.768 144.401 252.803 140.273C252.813 139.18 252.932 138.771 252.407 138.12C251.35 136.808 248.304 136.988 246.35 136.988L115.906 136.806C115.033 136.806 111.558 136.607 111.295 136.657C110.32 136.842 108.918 137.928 108.918 139.181V145.573L108.917 145.573Z" fill="#1F319D"/>
<path fill-rule="evenodd" clip-rule="evenodd" d="M44.7705 136.805C44.4717 136.805 42.9912 135.965 43.1742 134.285C43.406 132.155 42.9233 130.588 45.4953 130.42C47.3636 130.299 47.748 129.914 48.7497 130.739C49.9313 131.713 49.6085 131.823 49.6085 134.613C49.6085 135.417 48.4958 136.805 47.8165 136.805H44.7705ZM8.21765 135.161C8.4348 135.582 8.51159 136.09 9.25695 136.659C11.4744 138.353 15.6893 137.248 17.068 137.452C17.7557 137.553 18.6942 137.6 19.199 137.666C21.9236 138.022 23.2212 137.663 24.9369 139.123C25.3878 139.507 25.8064 139.769 26.3718 140.035C27.5324 140.581 28.4533 140.979 29.6995 141.391C31.9376 142.133 31.2489 142.555 32.2633 143.528C33.1632 144.39 34.0528 144.31 34.9992 145.502C35.4667 146.09 35.6032 146.49 35.9837 147.041C36.4385 147.701 36.6361 147.692 37.248 148.127C39.2879 149.577 38.2897 151.443 40.697 154.109C43.1096 156.782 42.6044 164.777 42.622 168.406C42.6259 169.183 42.4743 170.236 42.4836 170.607C42.4953 171.069 42.9228 171.85 43.2016 172.197C43.676 172.787 43.9679 172.817 44.592 173.154C47.5324 171.147 46.0793 171.206 47.4238 170.196C49.0911 168.944 48.8348 170.076 50.416 167.401C51.2367 166.012 52.5229 166.073 53.4502 164.649C55.9998 160.733 54.7932 164.341 57.5663 160.078C58.0368 159.354 58.4511 159.192 59.1431 158.762C60.7243 157.78 60.5443 156.731 61.8409 155.667C62.5217 155.109 62.8768 155.223 63.5502 154.488C64.1366 153.848 64.1049 153.392 64.6981 152.736C65.7467 151.577 66.8564 151.596 67.6477 150.08C69.2627 146.986 71.8054 148.774 71.8372 142.643C71.8489 140.394 69.743 139.787 69.1663 139.519C67.7676 138.87 68.4102 137.345 66.6642 136.408C65.9717 136.036 65.3271 135.958 64.9074 135.276C63.4793 132.951 65.286 134.148 62.059 132.334C61.2633 131.887 61.2667 131.341 60.9048 130.588C59.9883 128.681 58.5509 129.388 57.7859 127.923C57.3971 127.177 57.4059 126.694 56.7325 126.086C56.1695 125.577 55.5244 125.511 54.9576 125.143C53.707 124.333 54.3516 122.896 52.3469 121.96C51.4572 121.544 51.1413 121.582 50.7119 120.704C49.1708 117.555 49.7855 119.397 47.7798 117.848C47.1885 117.391 47.1127 116.641 46.719 116.007C45.7423 114.434 44.3592 114.998 43.6681 113.454C43.3258 112.689 43.2686 112.216 42.5565 111.665C41.8933 111.152 41.1352 111.05 40.6872 110.648C39.6821 109.744 40.5522 108.211 37.8275 107.722C36.711 107.521 34.4025 108.484 33.6532 109.032C33.0668 109.46 32.8042 109.994 32.3352 110.611C31.9194 111.157 31.4959 111.527 31.0225 112.012C30.4547 112.593 29.9758 112.799 29.5122 113.395C28.2694 114.991 22.7653 120.201 22.3736 120.731C21.5935 121.785 20.6398 122.686 19.5795 123.545L15.3103 127.96C14.8535 128.568 14.4256 128.925 13.9081 129.453C12.9089 130.471 12.0359 131.353 11.0416 132.376C9.96512 133.483 8.75514 134.129 8.21911 135.161H8.21765Z" fill="#1F319D"/>
<path fill-rule="evenodd" clip-rule="evenodd" d="M104.514 179.442C104.169 181.339 103.878 181.447 104.643 182.624C106.425 185.367 109.394 184.513 110.703 184.474C113.394 184.392 116.242 184.48 118.951 184.48C129.941 184.48 140.931 184.48 151.92 184.48C163.015 184.48 173.576 184.297 184.711 184.297C186.738 184.297 208.51 184.449 209.403 184.261C210.153 184.103 211.122 182.846 211.336 182.03C211.62 180.948 211.23 179.256 211.23 178.086C211.23 175.871 211.895 174.957 210.868 173.158C209.897 171.456 209.424 171.692 206.93 171.693H141.707C139.734 171.694 138.462 171.509 136.511 171.511H107.842C107.43 171.511 106.539 171.905 106.236 172.066C102.619 173.983 105.157 175.902 104.514 179.442L104.514 179.442Z" fill="#1F319D"/>
<path fill-rule="evenodd" clip-rule="evenodd" d="M36.5281 228.135C36.5281 227.164 36.578 225.76 36.7491 224.89C36.9575 223.833 37.7606 223.509 38.2883 223.17C38.9647 222.736 39.4958 222.188 39.9311 221.557C40.5532 220.656 40.5488 220.44 42.0782 220.458C43.5625 220.476 44.6101 219.835 45.9615 221.258C47.3994 222.772 47.3774 221.956 48.334 223.041C49.2544 224.084 49.453 224.367 49.4315 225.941C49.4095 227.522 49.7572 227.685 49.3239 228.936C49.0305 229.784 48.8412 230.762 48.5649 231.455C48.1819 232.416 47.5417 232.401 46.5831 232.722C46.007 232.916 44.7114 233.546 44.2091 233.602C44.2042 233.603 41.08 233.401 41.0457 233.393C40.5542 233.288 39.5066 232.472 39.0576 232.132C38.1063 231.412 36.5281 229.379 36.5281 228.135ZM3.73769 199.457C3.73769 201.058 4.99951 201.967 5.88768 202.562C6.88492 203.23 6.40952 204.567 8.72874 206.424C9.0799 206.706 9.30244 206.796 9.57828 207.202L11.7474 210.106C12.0941 210.527 12.053 210.601 12.4736 211.009C14.834 213.297 14.3444 213.564 16.5027 215.487C17.8829 216.716 17.8565 217.389 18.6576 218.405C19.2274 219.126 19.8231 219.384 20.454 220.044C22.0205 221.682 20.1982 221.145 23.4501 223.748C24.1661 224.322 24.1857 224.989 24.662 225.801C26.1772 228.381 26.0975 226.593 27.7374 229.425C29.3117 232.142 29.7044 231.775 30.8239 233.219C31.8784 234.579 32.5186 236.184 33.7785 236.965C36.0923 238.399 36.7922 239.476 37.4935 239.936C39.0317 240.946 44.1778 241.167 46.1028 240.818C49.4931 240.204 48.8779 239.493 50.3969 238.438C51.1095 237.943 51.8412 237.805 52.5063 237.301C54.1766 236.035 53.8993 234.515 55.0329 233.118C56.1627 231.727 56.7746 230.408 56.7746 228.135C56.7746 222.458 57.0098 224.361 54.6324 220.273C53.4249 218.197 52.0197 216.382 49.9079 215.225C49.2701 214.876 48.1883 214.536 47.7388 214.148C47.1651 213.653 47.0614 212.933 46.3141 212.313C45.5976 211.719 44.8737 211.611 44.2076 211.172C43.4632 210.682 43.1732 209.967 42.6519 209.287C41.5412 207.84 40.9665 208.731 39.1393 206.292C38.5274 205.475 38.2149 205.36 37.3439 204.835C35.6027 203.784 35.2281 202.916 33.8655 201.805L30.6919 199.195C28.717 196.919 27.2145 195.951 26.9 195.571C24.3857 192.532 24.3691 193.724 23.231 192.735C22.5389 192.134 22.5859 190.943 21.0893 189.986C20.742 189.764 20.365 189.662 20.0158 189.436C19.3232 188.988 19.1589 188.188 18.6429 187.548C17.0832 185.61 14.7738 186.294 13.711 188.254C13.4562 188.724 13.4733 188.943 13.0781 189.252C12.8527 189.428 12.7612 189.431 12.4947 189.571L11.1199 190.544C10.4523 191.271 10.3691 191.879 9.86488 192.553C9.44476 193.115 8.60306 193.379 7.99073 193.93C7.10451 194.727 7.23167 194.832 6.66727 195.868C6.21145 196.705 3.73621 197.683 3.73621 199.457L3.73769 199.457Z" fill="#1F319D"/>
<path fill-rule="evenodd" clip-rule="evenodd" d="M87.1009 124.888C85.9614 123.732 86.3546 123.359 84.3313 121.684C83.9713 121.385 84.1376 121.494 83.7067 121.224C82.1842 120.269 82.9081 119.507 80.3194 117.736C78.6433 116.591 79.73 116.813 78.1483 115.2C76.6777 113.701 76.6596 114.532 75.7308 113.098C73.9202 110.302 73.1568 111.074 72.2373 109.536C70.7481 107.044 69.6633 107.344 68.8108 106.088C67.9549 104.827 67.8195 104.552 66.5547 103.638C64.1455 101.895 65.6029 101.932 63.0749 100.062C62.6372 99.7378 62.1872 99.5488 61.8664 99.1021C60.9836 97.8735 61.3665 97.8466 59.6704 96.5915C57.9043 95.2842 58.8082 96.0226 57.4969 94.241C56.4977 92.8838 53.7276 91.2598 51.4001 91.1401C50.5363 91.73 48.5331 94.6823 48.5331 96.072C48.5331 96.5741 49.7665 98.5037 50.1216 99.0278L50.4058 99.474C51.3027 101.037 50.8493 99.7642 52.254 101.23C52.6795 101.673 52.9959 101.968 53.4214 102.414C53.9457 102.963 53.934 103.294 54.3208 103.689C54.7591 104.136 55.0364 104.007 55.57 104.608L57.5644 107.141C57.7067 107.34 60.4431 109.331 60.9797 110.263C61.5666 111.283 62.8719 111.711 64.2516 113.476C64.8185 114.201 64.4174 114.185 65.2224 114.678L65.9653 115.199C66.1835 115.41 66.2823 115.535 66.496 115.754C67.167 116.445 67.6214 116.746 68.0303 117.478C68.6039 118.505 68.3941 118.013 69.1566 118.522C70.2071 119.222 71.4259 121.05 71.7952 121.495C72.1679 121.943 72.5205 121.925 73.0409 122.417C73.4375 122.792 73.7173 123.121 74.112 123.517C75.1361 124.546 74.6304 124.001 75.14 124.844C75.6408 125.674 75.679 125.247 76.3524 125.8L78.3621 128.136C78.6355 128.599 78.2931 128.331 78.769 128.817L81.8663 131.139C82.5672 131.639 82.4586 131.512 82.9364 132.24C84.569 131.359 83.7478 131.528 86.3184 130.573C88.9228 129.605 89.4617 127.282 87.1014 124.889L87.1009 124.888Z" fill="#1F319D"/>
<path fill-rule="evenodd" clip-rule="evenodd" d="M70.3572 122.96C69.8232 122.511 69.4172 122.774 68.5902 122.204C68.1838 121.924 67.6409 121.36 67.4457 120.813C67.1547 120 67.3968 119.568 66.5077 119.213C65.8386 118.945 64.4217 118.898 63.807 116.852C63.0504 114.335 61.3058 116.538 60.1834 113.057C59.6767 111.487 59.4424 112.914 57.3516 110.832C56.4023 109.886 56.9858 110.093 56.5094 109.13C56.0707 108.244 54.9067 108.792 53.5979 106.985C53.0682 106.253 53.4253 105.848 52.8129 105.228C52.1771 104.583 51.0508 104.997 49.9415 103.223C49.5263 102.559 49.7366 101.976 49.0744 101.55C48.7619 101.348 47.7436 101.061 47.2775 100.824C45.8318 100.093 44.7905 99.2332 43.9982 99.6486C43.5194 99.8994 42.8616 100.358 42.4645 100.662C41.6531 101.283 40.4715 102.195 39.9335 103.014C40.3311 103.78 40.4646 104.002 40.9635 104.704C41.8536 105.957 41.7436 107.556 42.7618 108.349C43.3698 108.823 43.8715 108.779 44.5069 109.129C45.9027 109.898 45.2958 111.158 46.7072 112.184C47.4076 112.693 47.8214 112.461 48.5051 113.091C49.5825 114.085 48.9927 115.449 50.7979 116.051C51.69 116.348 51.7863 116.284 52.3503 117.025C53.4888 118.523 52.113 118.672 54.8314 119.793C56.4815 120.474 55.8242 121.75 57.0826 122.795C57.734 123.337 58.2006 123.148 58.8858 123.697C59.7251 124.369 59.4581 124.392 59.8224 125.299C60.6015 127.239 61.8511 126.335 62.8239 127.719C63.6955 128.959 62.8684 129.626 65.2698 130.523C67.1009 131.207 66.2812 132.391 67.57 133.475C69.0533 134.723 69.3316 133.316 70.2956 135.993C70.8986 137.668 72.2461 137.323 73.3137 138.214L74.0297 138.945C74.1408 139.115 74.7947 140.663 76.1049 140.586C77.2773 140.517 78.274 138.628 78.7352 138.002C80.2919 135.89 82.3984 135.411 79.7202 133.693C78.0745 132.637 78.0334 131.347 77.7213 130.616C77.3501 129.744 77.0087 129.977 76.147 129.664C74.3701 129.02 74.3966 127.193 74.0244 126.714C73.5113 126.051 73.0526 126.403 72.2818 125.933C70.501 124.848 71.1236 123.603 70.3592 122.961L70.3572 122.96Z" fill="#1F319D"/>
</g>
</g>
<defs>
<clipPath id="clip0_14_196">
<rect width="508" height="353" fill="white" transform="translate(-255 -16)"/>
</clipPath>
</defs>
</svg>
